<?xml version="1.0" encoding="UTF-8"?><svg id="Layer_2" xmlns="http://www.w3.org/2000/svg" viewBox="0 0 350 350"><defs><style>.cls-1{fill:#333;font-family:Poppins-Bold, Poppins;font-size:20px;font-weight:700;}</style></defs><g id="Layer_1-2"><text class="cls-1" transform="translate(16.77 179.62) rotate(-87.9)"><tspan x="0" y="0">W</tspan></text><text class="cls-1" transform="translate(17.7 158.83) rotate(-81.56)"><tspan x="0" y="0">H</tspan></text><text class="cls-1" transform="translate(19.8 144.57) rotate(-76.29)"><tspan x="0" y="0">A</tspan></text><text class="cls-1" transform="translate(23.3 130.46) rotate(-71.5)"><tspan x="0" y="0">T</tspan></text><text class="cls-1" transform="translate(27.09 119.4) rotate(-68.61)"><tspan x="0" y="0"> </tspan></text><text class="cls-1" transform="translate(28.45 115.5) rotate(-65.19)"><tspan x="0" y="0">A</tspan></text><text class="cls-1" transform="translate(34.58 102.31) rotate(-60.21)"><tspan x="0" y="0">R</tspan></text><text class="cls-1" transform="translate(41 91.16) rotate(-55.95)"><tspan x="0" y="0">E</tspan></text><text class="cls-1" transform="translate(47.06 82.32) rotate(-53.26)"><tspan x="0" y="0"> </tspan></text><text class="cls-1" transform="translate(49.42 78.96) rotate(-50.13)"><tspan x="0" y="0">Y</tspan></text><text class="cls-1" transform="translate(57.85 68.76) rotate(-44.95)"><tspan x="0" y="0">O</tspan></text><text class="cls-1" transform="translate(68.86 57.82) rotate(-39.65)"><tspan x="0" y="0">U</tspan></text><text class="cls-1" transform="translate(79.69 49.01) rotate(-36.39)"><tspan x="0" y="0"> </tspan></text><text class="cls-1" transform="translate(82.99 46.51) rotate(-33.94)"><tspan x="0" y="0">L</tspan></text><text class="cls-1" transform="translate(90.69 41.18) rotate(-29.42)"><tspan x="0" y="0">O</tspan></text><text class="cls-1" transform="translate(104.18 33.55) rotate(-23.78)"><tspan x="0" y="0">O</tspan></text><text class="cls-1" transform="translate(118.39 27.33) rotate(-18.44)"><tspan x="0" y="0">K</tspan></text><text class="cls-1" transform="translate(131.51 23.08) rotate(-14.86)"><tspan x="0" y="0">I</tspan></text><text class="cls-1" transform="translate(137.04 21.45) rotate(-11.09)"><tspan x="0" y="0">N</tspan></text><text class="cls-1" transform="translate(151.59 18.59) rotate(-5.67)"><tspan x="0" y="0">G</tspan></text><text class="cls-1" transform="translate(166.64 17.25) rotate(-2.22)"><tspan x="0" y="0"> </tspan></text><text class="cls-1" transform="translate(170.51 16.96) rotate(.93)"><tspan x="0" y="0">F</tspan></text><text class="cls-1" transform="translate(181.44 16.98) rotate(5.11)"><tspan x="0" y="0">O</tspan></text><text class="cls-1" transform="translate(196.9 18.42) rotate(10.25)"><tspan x="0" y="0">R</tspan></text><text class="cls-1" transform="translate(209.54 20.74) rotate(14.53)"><tspan x="0" y="0">?</tspan></text></g></svg>