<svg xmlns="http://www.w3.org/2000/svg" viewBox="0 0 187.46 170.4"><defs><style>.cls-1{fill:#fff;}</style></defs><g id="Layer_2" data-name="Layer 2"><g id="Rollovers"><path class="cls-1" d="M131.58,67.72c-6.18.2-10.77-2.63-14-7.41-2.85-4.17-4.86-9.07-4.08-14.06,1.41-9,8.55-15.17,18.15-13.92a1.81,1.81,0,0,0,.68.08c3.77-1.09,7.06.44,10.54,1.59,4.21,1.39,10.09,7,9.77,12.26-.23,3.79-.4,7.6-.8,11.38a4.36,4.36,0,0,1-1.62,2.24C144.83,64.6,139.12,68.55,131.58,67.72Zm11-19.68c.56-2.65-.06-4.9-2.5-6.22-1.34-.73-3.07-1.47-4.47-1.24a69.81,69.81,0,0,0-9.81,2.59,3.23,3.23,0,0,0-1.51,2c-1,3.17.12,6.09,1.22,9,.79,2.1,1.65,4,4.1,4.71,3.9,1.16,11.67-1.65,12.69-6.78A30,30,0,0,0,142.59,48Z"/><path class="cls-1" d="M111.49,69.4A6,6,0,0,1,117,72.93a4.55,4.55,0,0,1-.37,3.72c-1.33,2.24-3.29,4.11-4.6,6.36-2.14,3.66-4,7.49-5.89,11.29a6.57,6.57,0,0,0-.42,2.2c-.42,4-2.31,5.51-6.5,5-3-.36-5.48-3.5-4.52-6.57a63.74,63.74,0,0,1,4.89-11.14c2.14-4,4.79-7.65,7.12-11.52C107.85,70.43,109.15,69.17,111.49,69.4Z"/><path class="cls-1" d="M146.85,69.38c.24-.21.34-.32.46-.41,5.23-3.5,8.35-1.37,11.6,2.85,2.94,3.81,5.8,7.69,8.91,11.36,1.69,2,3.93,3.53,5.75,5.44a8.09,8.09,0,0,1,2,3.39c.17.61-.55,1.68-1.15,2.25-1.41,1.34-2.78,3.14-5.16,2-1.56-.77-3.35-1.35-4.57-2.51a61.18,61.18,0,0,1-5.16-6.16c-2.68-3.34-5.2-6.81-8-10C149.33,75.13,147.48,72.69,146.85,69.38Z"/><path class="cls-1" d="M72.62,28.21C77,29.16,81,30.07,85,30.89s8.2,1.32,12.18,2.45a44.68,44.68,0,0,1,9,3.87c1.93,1,1.2,4.54-.84,5.44a7.63,7.63,0,0,1-7.21-.12c-4-2.44-8.64-2.52-13-3.43-3.61-.75-7.34-1-11-1.48-3.51-.48-5.64-2.44-5.86-5.3S69.59,28.08,72.62,28.21Z"/><path class="cls-1" d="M157.38,36.17a3.94,3.94,0,0,1,2.81-4.09c5.93-2.37,11.83-4.82,17.64-7.47,3.11-1.41,8.61-.4,9.6,4.43a3.62,3.62,0,0,1-1.44,3c-1.48.87-3.35,1-5,1.67q-5.79,2.18-11.51,4.54C168,38.9,166.59,40,165,40.52,161.58,41.69,157.43,40.24,157.38,36.17Z"/><path class="cls-1" d="M132,25.41c-3.16,0-5-3.78-4.28-7.42.92-4.62,1.47-9.32,2-14,.25-2.43,1.84-4.24,4.69-3.95a11.59,11.59,0,0,1,5.15,2,4.08,4.08,0,0,1,1.07,3.29C140,10.63,139,15.9,138.4,21.19c-.25,2.13-1.7,3-3.27,3.67A12.35,12.35,0,0,1,132,25.41Z"/><path class="cls-1" d="M152.67,150.13c-2.78,0-5.23-.5-7.14-2.76-2.11-2.5-1.37-5.48,1.82-5.84a89.11,89.11,0,0,1,14.23-.62c1.81.09,3.83,1.63,5.23,3,1.81,1.84.78,4.45-1.78,4.82C160.93,149.36,156.79,149.69,152.67,150.13Z"/><path class="cls-1" d="M141.81,82.06c.34,1.47.82,3.82,1.44,6.14a4.19,4.19,0,0,1-3,5.22c-4,.8-6.29-.81-7.44-5.07-.72-2.67-1.53-5.31-2.31-8a4,4,0,0,1,4-5,28.59,28.59,0,0,1,5.06,1C141,76.78,141.82,78.74,141.81,82.06Z"/><path class="cls-1" d="M138.47,132c0-2.75-.11-6,.06-9.34a4.68,4.68,0,0,1,1.37-3.08,5.25,5.25,0,0,1,5.58-.5,3.87,3.87,0,0,1,2.46,4.13c-.18,3.24-.33,6.49-.52,9.74a20.54,20.54,0,0,1-.34,2.93c-.62,2.87-1.84,3.86-4.28,3.58-3.09-.37-4.56-1.88-4.5-4.65C138.32,134.08,138.39,133.33,138.47,132Z"/><path class="cls-1" d="M137.46,159.68c-.32-1.3-.6-2.62-1-3.91-.52-1.75,1.14-4.47,3.15-5.07,3.46-1,7.36,2.28,7.2,5.83-.14,2.94.19,5.89.2,8.84a4.9,4.9,0,0,1-3.77,5,5.19,5.19,0,0,1-5.41-4.11c-.34-2.15-.53-4.33-.79-6.5Z"/><path class="cls-1" d="M23.53,46.72c3.65.11,5.24,1.38,6,4.89.56,2.56,1.09,5.14,1.58,7.72a5.61,5.61,0,0,1-4,6.29,5.05,5.05,0,0,1-5.82-4.1c-.24-1.31.13-2.72,0-4.05-.28-2.32-.75-4.61-1.13-6.92A3,3,0,0,1,23.53,46.72Z"/><path class="cls-1" d="M99.05,54.51c2.22,0,6,2.8,6.34,4.52.46,2.46-1.43,3.5-3.08,4.47-2.59,1.52-5.29,2.89-8,4.21a5.3,5.3,0,0,1-7.53-4.57,3.39,3.39,0,0,1,1.42-2.41c3.17-2.11,6.45-4.06,9.72-6A2.31,2.31,0,0,1,99.05,54.51Z"/><path class="cls-1" d="M113.32,29.89c-1.69.2-2.94-.73-4.06-2.47a62.31,62.31,0,0,0-4.59-5.6,13.27,13.27,0,0,1-1.54-2.21c-.8-1.51-1.91-3.1-.37-4.73,1.22-1.29,4.28-1.44,5.91-.12a76.22,76.22,0,0,1,6,5.64c1,1,1.78,2.22,2.7,3.31s2.27,1.59,1.58,3.37a4.45,4.45,0,0,1-4.16,3A10.85,10.85,0,0,1,113.32,29.89Z"/><path class="cls-1" d="M120.58,150.41c-2.55,0-4.9-.51-6.55-2.6-1.32-1.66-.48-4,1.91-4.41,5-.89,10.06-1.45,15.11-2,1.53-.16,3.5,2.16,3.42,4a3.42,3.42,0,0,1-2.9,3.36C127.92,149.39,124.25,149.86,120.58,150.41Z"/><path class="cls-1" d="M33.88,80c.1,1.55.25,2.91.27,4.26a4.78,4.78,0,0,1-3.91,4.61c-2.31.36-4.52-1.35-5.24-4-.64-2.38-1.42-4.73-1.93-7.13s1.08-4.11,2.85-4.94c1.2-.55,3.1,0,4.56.5C33.82,74.39,34.09,77.25,33.88,80Z"/><path class="cls-1" d="M148,29.17a17.16,17.16,0,0,1-2.76-2.66c-.9-1.37-1.55-2.88-.35-4.58,1-1.46,1.74-3.12,2.69-4.64,1.14-1.79,2.45-3.56,4.79-3.66A4.8,4.8,0,0,1,157.53,17c.34,1.13-.23,2.7-.77,3.91-.95,2.12-1.87,4.41-3.42,6.05C152.25,28.11,150.15,28.34,148,29.17Z"/><path class="cls-1" d="M169.55,60.39c-.84,0-1.67.11-2.5.12-4.11.05-5-.57-6.26-4.34-.52-1.58.92-4.21,2.72-4.36,4.83-.42,9.66-.31,13.9,2.5a4.17,4.17,0,0,1,1.79,2.83,2.51,2.51,0,0,1-2.69,2.68c-2.32.1-4.62.55-6.93.84Z"/><path class="cls-1" d="M11.7,73.31c-.81.11-2.23.39-3.66.47-2.8.16-5.52.18-7.46-2.53C-.34,70-.12,69,.93,68.38a14.94,14.94,0,0,1,5-2.22A36.57,36.57,0,0,1,15,65.59c3.18.27,4.31,1.75,4.12,4s-2.12,3.8-5,3.88C13.53,73.46,12.93,73.38,11.7,73.31Z"/><path class="cls-1" d="M47.13,65.09c-.57,4.25-1.48,5.1-5.78,5a54.16,54.16,0,0,1-6.85-.63,3.79,3.79,0,0,1-3.14-4,3.67,3.67,0,0,1,3.69-3.54C39.34,61.65,43.48,62.17,47.13,65.09Z"/></g></g></svg>