<svg xmlns="http://www.w3.org/2000/svg" viewBox="0 0 27.96 26.63"><defs><style>.cls-1{fill:#fff;}</style></defs><g id="Layer_2" data-name="Layer 2"><g id="Layer_1-2" data-name="Layer 1"><path class="cls-1" d="M27.18,22.44q-4.71-4.7-9.5-9.31,4.68-4.43,9.41-8.79a2.43,2.43,0,0,0,0-3.53A2.68,2.68,0,0,0,23.4.67Q18.66,5.08,14,9.57c-3.12-3-6.25-6-9.41-8.9A2.68,2.68,0,0,0,.88.81a2.43,2.43,0,0,0,0,3.53q4.74,4.35,9.41,8.78Q5.5,17.76.78,22.44A2.41,2.41,0,0,0,.76,26a2.74,2.74,0,0,0,3.71-.14Q9.18,21.2,14,16.63q4.79,4.57,9.51,9.2A2.74,2.74,0,0,0,27.2,26,2.41,2.41,0,0,0,27.18,22.44Z"/></g></g></svg>