<svg xmlns="http://www.w3.org/2000/svg" viewBox="0 0 186.43 138.76"><defs><style>.cls-1{fill:#fff;}</style></defs><g id="Layer_2" data-name="Layer 2"><g id="Rollovers"><path class="cls-1" d="M110.51,69.91A15.32,15.32,0,0,0,105,62.58c-3.31-2.38-7.06-2.36-10.83-2.67a40.25,40.25,0,0,0-14.16,1.55,13.1,13.1,0,0,0-4.36,2.28,41.41,41.41,0,0,0-4.88,4.58,20,20,0,0,0-5.39,12.34c-2.13-.11-4.2-.56-6.16-.25a62.35,62.35,0,0,0-8.75,2.23c-3.94,1.22-6.06,4.74-7.18,8a19.85,19.85,0,0,0,1.83,17.57A22.72,22.72,0,0,0,57.8,118.36a2,2,0,0,1,.92,1.38c.31,1.7.4,3.43.7,5.13,1,5.65,5,8.39,9.87,10.42a17.38,17.38,0,0,0,12.21.82c2.65-.84,5.09-2.34,7.89-3.66.93.75,2.13,2.28,3.7,2.88,3.44,1.32,6.61,3.56,10.55,3.42,2.78-.1,5.59.07,8.35-.2a16.56,16.56,0,0,0,12.4-7.29c2.77-3.94,5.53-8,6.6-12.71a23,23,0,0,0-.09-7.76c-.28-2.28-.46-2.19,1.76-3a25.58,25.58,0,0,0,12-9.15,16.14,16.14,0,0,0,3.4-10.1,19.82,19.82,0,0,0-1.47-6.35c-1-2.67-2.31-5.2-3.42-7.81a13.37,13.37,0,0,0-7.48-6.9,31.75,31.75,0,0,0-9.09-1.85c-4.92-.5-9.45,1.22-13.89,3.11C112,69.06,111.38,69.46,110.51,69.91Zm-23.45-2c1.76-.08,4.79-.38,7.82-.35A8.47,8.47,0,0,1,103,73a11.28,11.28,0,0,1-.38,7.49A4.82,4.82,0,0,0,105,86.34c1.42.66,3.82-.45,5.16-2.28s2.76-3.57,4.16-5.34c3.34-4.2,8.15-4.82,12.91-4.61,5.77.25,9.58,3.66,11.67,9,1.25,3.17,1.84,6.23-.34,9.32-3.55,5-8.41,7.42-14.48,7.69a6.19,6.19,0,0,0-3,.77,5.26,5.26,0,0,0-.22,8.38c2.38,2.09,2.56,4.83,1.69,7.37a41.07,41.07,0,0,1-4.25,8.42c-1.31,2.1-3,4.16-5.71,4.56-1.76.25-3.55.29-5.33.4a15.2,15.2,0,0,1-10-2.9,5.39,5.39,0,0,1-1.64-3.1c-.43-2-.88-3.73-2.89-4.72a3.89,3.89,0,0,0-5.18,1.81,7.06,7.06,0,0,1-1.19,1.46A6.68,6.68,0,0,0,85,124.31c-.71,2.11-1.6,4.06-3.89,4.79-4.83,1.55-9.2.26-12.85-2.93-1.1-1-1.45-3.09-1.58-4.73a3.32,3.32,0,0,1,2.49-3.83c.91-.26,1.61-1.35,2.32-2.14.51-.56.28-3.92-.33-4.24-1.62-.82-3.26-1.83-5.2-1.23a10.63,10.63,0,0,1-5.92.07c-5.59-1.39-11.34-8.58-9.34-14.85.79-2.49,1.8-5.11,4.24-6.1,4.45-1.81,9-1,13,1.41,1.3.76,2.3.8,3.23.14,1.19-.84,2.72-1.48,2.88-3.38.21-2.39-1.08-4.61-.23-7.16C75.89,74.09,79.37,69.79,87.06,67.92Z"/><path class="cls-1" d="M65.56,22.59c.75-3,1.53-6,2.24-9,.8-3.39-1.18-7.39-4.61-9.5A30.12,30.12,0,0,0,60,2C53.44-1,46.91-.33,40.35,2a20.72,20.72,0,0,0-7,4.37,18.85,18.85,0,0,0-4.28,5.9c-2.21,4.37-2.4,4.5-1.66,8.59a31.8,31.8,0,0,0-4-.07,47.19,47.19,0,0,0-7,1.06,38.36,38.36,0,0,0-7,2.57c-1.91.93-3.93,1.78-5.22,3.74-.61.95-1.55,1.61-2.2,2.69-3.21,5.4-2,10.41.67,15.52C5.73,52.4,15,55.82,21.42,53.73c1.66-.54,2.4-.16,3,1.54,1,2.67,2.34,5.23,5.09,6.63a20.61,20.61,0,0,0,6.21,1.56c4.26.72,7.55-1.19,11-2.89,4.38-2.18,7.09-5.46,6.45-10.93a40.16,40.16,0,0,1,4.14.09,15.2,15.2,0,0,0,9.81-1.94A11.08,11.08,0,0,0,72.28,41c.82-3.29,1.38-6.46.51-9.87-.76-3-2.68-4.91-4.87-6.73C67.19,23.83,66.43,23.27,65.56,22.59ZM46.8,8.13a50.86,50.86,0,0,1,7.29.33,15.28,15.28,0,0,1,5,2.31c.44.27.58,1.38.52,2.08a13.18,13.18,0,0,1-.75,3.64,7.26,7.26,0,0,1-2,3.25c-3,2.17-3.34,5.08-.8,7.85a4.77,4.77,0,0,0,2.72,1.67c1.51.33,2.87,1.27,4.35,1.79a2.17,2.17,0,0,1,1.69,2c.28,3.65-1.16,5.57-4.55,7a13,13,0,0,1-12-.78,4.29,4.29,0,0,0-3.13.17,2.16,2.16,0,0,0-1.45,2.88c.55,1.41,1.4,2.69,2,4.06,2.23,4.79,1.62,5.52-1.82,7.72a12.27,12.27,0,0,1-7.08,2c-1.63-.06-4-.8-4.64-2-1.4-2.59-1.89-5.62.5-8.31a3.35,3.35,0,0,0,.74-2.7c-1-3.08-5.91-4.12-7.8-1.53-2.17,3-5,4-8.39,4.43a7.67,7.67,0,0,1-7.45-2.85c-3.22-4.71-2.06-9.29,3.45-11.82a34.46,34.46,0,0,1,7.52-2.22c3.81-.78,7.66-1.39,10.91,1.8a2.39,2.39,0,0,0,2.32.13c4.52-3.41,4.54-2.23,2.27-7.89a5,5,0,0,1-.39-.81c-.3-1.33-1-2.74-.75-4a10.42,10.42,0,0,1,5.54-7.7C42.48,9.77,44.46,9.1,46.8,8.13Z"/><path class="cls-1" d="M158.8,70.93c-2.35.27-3.31,2.1-4.1,3.67a2.54,2.54,0,0,0,1.78,3.56c4.14,1.25,4.54,4.64,4.64,8a58.05,58.05,0,0,1-.64,9.94c-.44,3.09-2.85,4.77-5.37,6.29a7.39,7.39,0,0,0-2.45,2.46c-.69,1.16,0,2.13,1.14,2.75,3.57,2,5.45,1.7,8.6-1a18.64,18.64,0,0,0,6.42-13.45,84.45,84.45,0,0,0-.24-13.21c-.37-4-3.21-6.66-6.55-8.58C161.17,70.83,159.89,71.05,158.8,70.93Z"/><path class="cls-1" d="M19.08,107a19.23,19.23,0,0,0,7.19,10.88c1.68,1.33,3.23,2.64,5.34,3a2.4,2.4,0,0,0,2-.85c.85-1.34,1.74-2.82,1-4.53a5.42,5.42,0,0,0-1.24-1.8c-3.43-3.33-7-6.72-6.38-12,.26-2.29,1.67-4.45,2.53-6.69a23.89,23.89,0,0,0,1.67-4.74,3.27,3.27,0,0,0-2.52-3.68c-1.51-.43-3.36-.71-4.49.78a39.29,39.29,0,0,0-3.47,5.6C18.5,97.13,18.09,101.61,19.08,107Z"/><path class="cls-1" d="M182.13,91.16a5,5,0,0,0-3.92,5.8c.7,4-.62,6.5-4.19,8.45a11.31,11.31,0,0,0-5.2,5c-.79,1.67-.4,2.69,1.14,3.71,3.44,2.27,5.82-.18,8.35-1.77,4-2.49,6.88-6,7.79-10.59A27.31,27.31,0,0,0,186,93C185.81,91.34,184,90.78,182.13,91.16Z"/><path class="cls-1" d="M3.12,113.64c.87,4.4,4,6.79,7.65,8.6,1.66.82,2.76.16,3.52-1.62,1.71-4,.64-4.16-1.49-6.47a10.23,10.23,0,0,1-2.3-3.7c-.51-1.58-.86-3.06-2.86-3.06-2.19,0-4.41,1.85-4.61,3.77A17.19,17.19,0,0,0,3.12,113.64Z"/></g></g></svg>