<svg xmlns="http://www.w3.org/2000/svg" viewBox="0 0 145.26 94.42"><defs><style>.cls-1{fill:#fff;}</style></defs><g id="Layer_2" data-name="Layer 2"><g id="Layer_1-2" data-name="Layer 1"><path class="cls-1" d="M116.25,44.54a17.48,17.48,0,0,0-2.3-.09c-3.76.46-7.51,1.11-11.28,1.39-6,.44-12,.69-18,.95-5.45.22-10.9.34-16.34.52-6.51.2-43,.3-49.52.68-2.69.16-5.34,1-8,1.39a13.46,13.46,0,0,1-4.1-.19c-2.39-.44-3.77-2.06-5.09-4.08A8.59,8.59,0,0,1,.26,38.05,1.88,1.88,0,0,1,2,36.34a14.9,14.9,0,0,1,7.56,0c1.44.41,3.18-.36,4.79-.42,3.13-.12,6.26-.12,9.39-.15,2.94,0,35.89,0,38.83,0,3.76-.12,7.53-.33,11.29-.53,8.09-.42,16.19-.75,24.27-1.3,5.3-.36,10.57-1,15.86-1.57a6.77,6.77,0,0,0,1.4-.57c-2.21-1.36-4.14-2.54-6.07-3.74-4.82-3-9.66-5.94-14.43-9-2.25-1.44-4.28-3.21-6.53-4.63A24.41,24.41,0,0,0,83.26,12c-1.93-.65-2.64-1.31-2.61-3.37s-.08-3.94.13-5.89A3.32,3.32,0,0,1,84.33,0,16.92,16.92,0,0,1,93,3.45c4.52,3.4,9.22,6.56,13.91,9.72,3.39,2.28,6.85,4.47,10.35,6.59,2,1.19,4.07,2.17,6.12,3.25,3.63,1.9,7.24,3.85,10.92,5.66A12.42,12.42,0,0,0,138.4,30c3.24.31,4.39,3.16,6.29,5a3.68,3.68,0,0,1,.35,3.28c-.88,2.17-1.5,4.47-4.58,5.21-2,.48-3.58,2.57-5.35,4-2.37,1.86-4.7,3.79-7.12,5.6-3,2.27-6.17,4.43-9.22,6.68-3.24,2.38-6.46,4.78-9.65,7.23S103,71.79,100,74.21c-3.45,2.72-6.89,5.46-10.35,8.17s-6.83,5.25-10.19,7.94c-1,.76-1.7,1.76-2.57,2.61a4.32,4.32,0,0,1-5.62.8c-.74-.38-1.71-.34-2.4-.78-2.55-1.59-3.61-4.34-4-7C64.47,84,66,82.26,68,81.12A89.44,89.44,0,0,0,75.94,76c2.48-1.77,4.81-3.74,7.2-5.62,2.68-2.1,5.34-4.24,8.06-6.3q8.42-6.37,16.88-12.7c1.9-1.42,3.85-2.8,5.71-4.27A31,31,0,0,0,116.25,44.54Z"/></g></g></svg>