<svg xmlns="http://www.w3.org/2000/svg" viewBox="0 0 121.77 115.44"><defs><style>.cls-1{fill:#fff;}</style></defs><g id="Layer_2" data-name="Layer 2"><g id="Layer_1-2" data-name="Layer 1"><path class="cls-1" d="M0,66.64C.32,58.8,1,53.2,2.61,47.7A49.71,49.71,0,0,1,9.39,33.36a72.24,72.24,0,0,1,8.4-9.7c2.47-2.51,5.34-4.61,8-6.94.35-.31.81-.91.72-1.26-.67-2.72,1.45-4,3-5A97.3,97.3,0,0,1,43.57,3a48.4,48.4,0,0,1,12-2.66A56.44,56.44,0,0,1,66.27.16a46.85,46.85,0,0,1,17.89,5c1.76.89,3.75,1.33,5.6,2.05s3.5,1.65,5.34,2.16c2.89.79,4.28,3.55,6.79,4.83a16.28,16.28,0,0,1,3.3,2.3,19.92,19.92,0,0,1,2.59,3,65.76,65.76,0,0,1,5.57,7.92c2,3.67,4.18,7.23,5.1,11.41.81,3.66,2.25,7.18,3,10.84a36.7,36.7,0,0,1,.29,7.57c-.06,5.73-1.69,11.09-3.61,16.46a50,50,0,0,1-4.43,9.65,63.87,63.87,0,0,1-6.8,9.67,59.14,59.14,0,0,1-16.24,13c-2.82,1.48-5.6,3.08-8.53,4.32a58.4,58.4,0,0,1-7.42,2.27,82,82,0,0,1-8,2,76.86,76.86,0,0,1-8.17.81,46.11,46.11,0,0,1-12.89-.93,66.84,66.84,0,0,1-8.34-2.3c-2.31-.82-4.47-2.07-6.7-3.11-1.77-.81-3.62-1.46-5.31-2.41a62,62,0,0,1-5.92-3.8A32.88,32.88,0,0,1,14.81,99c-2.11-2.21-4.07-4.56-6-7a33.34,33.34,0,0,1-3.23-4.86c-1.6-3-3.21-6-3.73-9.39C1.22,73.36.4,69,0,66.64Zm55.37,38.67.09-.28c1.39-.09,2.81-.07,4.19-.29a67.15,67.15,0,0,0,8.25-1.6c5-1.47,10.1-2.81,14.8-5A41.06,41.06,0,0,0,95,89.3c2.65-2.76,4.84-6,7.35-8.84s3.91-6.71,5.34-10.31a51.06,51.06,0,0,0,2.31-8,27.51,27.51,0,0,0,1-7.39,56.49,56.49,0,0,0-1.7-9,49.21,49.21,0,0,0-2-6.68c-.9-2.32-2.31-4.44-3.19-6.77A20.06,20.06,0,0,0,98.76,25,40.46,40.46,0,0,0,83.87,16.3c-4.17-1.44-8.07-3.63-12.44-4.59a42,42,0,0,0-14.08-.87c-2.35.28-5.05.14-6.59,2.78a5.73,5.73,0,0,1-2.39,1.64c-2.54,1.3-5.33,2.23-7.65,3.84C37,21.68,33.48,24.61,30,27.55c-2,1.74-3.66,4-5.75,5.66-2.9,2.29-4.52,5.49-6.6,8.35-2.88,3.95-4.35,8.61-5.43,13.29-1.28,5.54-2.08,11.2-1.08,16.92.41,2.39.89,4.78,1.47,7.13.82,3.41,3,6.08,5,8.83a27,27,0,0,0,10.81,9A150.65,150.65,0,0,0,43.12,103C47,104.25,51.28,104.56,55.37,105.31Z"/><path class="cls-1" d="M74.75,55.29c-2.22-1-4-1.77-5.85-2.55-3.08-1.33-6.19-2.57-9.23-4-4.35-2-8.63-4.21-13-6.26-1.46-.69-3.14-1-4.5-1.79s-3.08-2-3.8-3.41a4.82,4.82,0,0,1,.76-5c1.42-1.9,2-2.27,4.14-1.44,2.35.9,4.6,2,6.88,3.12,2.94,1.38,5.86,2.8,8.81,4.15q5,2.31,10.12,4.51c2.18.94,4.36,1.92,6.61,2.69,2.8,1,5.7,1.64,8.51,2.59,2.51.84,4.78,1.57,6.28,4.51,1.32,2.57.58,3.83-.54,5.83s-2.74,2.38-4.78,2.89c-1.65.42-3,2.09-4.44,3.3-1.84,1.57-3.56,3.3-5.41,4.86-3.41,2.89-6.83,5.79-10.36,8.53-3.09,2.4-6.37,4.57-9.53,6.9-2.25,1.67-4.47,3.38-6.61,5.17-1.32,1.1-4.21,1.17-5.49-.24a40.88,40.88,0,0,1-3.75-4.84,1.61,1.61,0,0,1,.33-2.48.76.76,0,0,0,.36-.48c0-2.53,2-2.51,3.65-3.23a31.68,31.68,0,0,0,5.61-3.24q5.63-4.05,11-8.38c3.84-3.1,7.54-6.36,11.31-9.54C72.69,56.85,73.53,56.24,74.75,55.29Z"/></g></g></svg>