<svg xmlns="http://www.w3.org/2000/svg" viewBox="0 0 135.11 157.43"><defs><style>.cls-1{fill:#fff;}</style></defs><g id="Layer_2" data-name="Layer 2"><g id="Layer_1-2" data-name="Layer 1"><path class="cls-1" d="M92.28,134.68c-.22-.37-.34-.9-.62-1-3.36-1.24-6.72-2.48-10.12-3.61-2.51-.83-5.07-1.52-7.62-2.23-4.19-1.19-8.4-2.32-12.59-3.52s-8.35-2.48-12.55-3.63S40.22,118.5,36,117.37c-2.11-.55-4.19-1.2-6.28-1.8a9,9,0,0,0-2.17-.53c-4.07-.05-5.18-3.18-6.45-6.13a15.73,15.73,0,0,1-.58-2.25,32.89,32.89,0,0,1,4.1-3,6.24,6.24,0,0,1,3.21-.33,19.73,19.73,0,0,1,3.71.77q13.14,3.7,26.25,7.46c5.35,1.54,10.67,3.2,16,4.73,4.41,1.26,8.85,2.41,13.28,3.59a2.42,2.42,0,0,0,1.58-.07c-1.68-1.66-3.29-3.38-5-5s-3.8-2.7-5.25-4.42a14.68,14.68,0,0,1-3.17-5.88c-.24-1,1.21-3.22,2.32-3.58,2.17-.7,4.63-.54,7-.61a2.49,2.49,0,0,1,1.49.77c3.1,2.88,6.19,5.76,9.22,8.71s6,6.19,9.17,9c2.27,2,5.06,3.48,7.37,5.47,1.25,1.08,2,2.75,3,4.15.21.32.4.65.61,1,.52.78-.41,4.63-1.06,5.26-1.75,1.71-4,2-6.17,2.86-2.31.88-4.23,2.74-6.35,4.12s-4,2.53-6.06,3.77c-2.63,1.61-5.26,3.22-7.92,4.77s-5.46,3.07-8.16,4.63c-1.16.67-2.17,1.77-3.39,2.08-2.89.74-5.85,1.08-7.79-2.07a.88.88,0,0,0-.57-.31c-1.52-.21-1.7-1.37-1.41-2.42.82-2.94,1.82-5.39,5.59-6.25,3.25-.75,6.2-2.94,9.2-4.63C84.85,139.18,88.44,137,92.28,134.68Z"/><path class="cls-1" d="M82.22,37.84c-1.76,1.28-2.09,3.65-4.72,4.35-2.45.66-4.14-.46-6-1.15-2.12-.78-3.81-5.27-1.14-11.08-3,1.65-5.58,3-8.12,4.53q-8.32,4.89-16.58,9.89c-2.94,1.79-5.8,3.71-8.7,5.58-4.28,2.75-8.58,5.49-12.83,8.28-2.31,1.51-4.45,3.3-6.85,4.65a97.34,97.34,0,0,1-9.83,4.84,5.82,5.82,0,0,1-6.85-2.3c-1.12-1.69-.64-4.81,1-5.88,3.5-2.21,7.09-4.29,10.58-6.51,3.19-2,6.3-4.21,9.46-6.3s6.13-4,9.22-6c2.46-1.59,4.92-3.16,7.43-4.67,5.93-3.56,11.86-7.14,17.84-10.61C61.75,22.21,67.41,19.1,73,15.93c.14-.07.2-.25.4-.53-1.39-.4-2.69-.86-4-1.16Q61.94,12.56,54.46,11c-.89-.19-1.84-.12-2.74-.29-2.67-.52-3.64-2.7-4.36-4.9S48,1.85,49.4.65c.91-.8,2.8-.65,4.25-.62A18.16,18.16,0,0,1,57.3.81c2.68.62,5.35,1.29,8,1.86q6.93,1.46,13.87,2.8c3.88.75,7.78,1.4,11.67,2.11,2.78.51,4.13,3.14,4.67,5.91.68,3.53-2.25,4.18-3.64,6.08-1.21,1.66-2.42,3.33-3.55,5.05C86.6,27.3,84.84,30,83.21,32.74a21.57,21.57,0,0,0-1.61,3.94C81.52,36.92,81.94,37.33,82.22,37.84Z"/><path class="cls-1" d="M102.3,60.71C100,59.4,97.9,58.4,96,57.18a7.27,7.27,0,0,1-3-8.69c.65-1.74,2.63-1.81,3.84-1.74a18.64,18.64,0,0,1,7.37,1.71c7.11,3.73,14,7.86,21,11.75a22.79,22.79,0,0,0,4.43,1.7c2.19.68,5.38,4.2,5.43,6.49a5.68,5.68,0,0,1-1.05,2.73,7.7,7.7,0,0,1-1.81,2.05c-1,.77-2.08,1.36-3.11,2.06a23.27,23.27,0,0,0-2.25,1.7c-2.58,2.27-5.14,4.55-7.67,6.87a52.32,52.32,0,0,0-4.53,4.4c-2.89,3.36-6.68,4.12-10.87,2.57-2.41-.9-2.69-2.89-3.47-4.71-.1-.24.29-.66.4-1,.83-2.63,3.31-3.61,5.17-5.22,2.61-2.25,5.2-4.55,7.76-6.86.29-.26.37-.76.55-1.14a3.72,3.72,0,0,0-1.21-.36c-3.81.15-7.63.23-11.43.57-3.42.31-6.82,1-10.23,1.4-5.3.68-10.62,1.26-15.92,2q-5.34.73-10.63,1.75C60.52,78,56.27,79,52,79.88c-3.61.73-7.21,1.48-10.85,2s-7.52.77-11.29,1A3.57,3.57,0,0,1,25.8,80c-.49-1.72-1.91-3.22-1.14-5.19a2.59,2.59,0,0,1,.95-1.35A14.08,14.08,0,0,1,33,71.62a26,26,0,0,0,5.3-.27c6.82-1.3,13.59-2.89,20.43-4.08,7.7-1.34,15.46-2.41,23.2-3.51,6.21-.88,12.44-1.62,18.66-2.45A10.3,10.3,0,0,0,102.3,60.71Z"/></g></g></svg>