<svg xmlns="http://www.w3.org/2000/svg" viewBox="0 0 161.89 120.19"><defs><style>.cls-1{fill:#fff;}</style></defs><g id="Layer_2" data-name="Layer 2"><g id="Layer_1-2" data-name="Layer 1"><path class="cls-1" d="M14.5,117.84a16.74,16.74,0,0,1-1-3.52c-.09-1.35-.21-3.11.52-4a21,21,0,0,0,4.17-9.58,75.77,75.77,0,0,0,1.58-12.42,18.7,18.7,0,0,0-3.58-11.5c-2.12-2.92-4.26-5.83-6.53-8.63-1.14-1.41-3.05-2.33-3.83-3.87-.92-1.83-3.52-2.05-3.69-4.45,0-.61-1.31-1.06-1.54-1.74-1.16-3.41-.75-3.65,2.49-5.21A17.42,17.42,0,0,1,9.29,51.7a144.69,144.69,0,0,0,15.55-2.53c4.4-.83,8.75-1.88,13.14-2.7,4.69-.89,9.4-1.71,14.12-2.41,5.34-.79,10.7-1.44,16.07-2.09a75.29,75.29,0,0,1,9.91-.92c4.74.08,9.48.64,14.21,1,1.79.15,3.58.38,5.36.64,1.25.19,1.69-.13,1.48-1.49-.82-5.21-1.67-10.41-2.25-15.65-.38-3.38-.25-6.82-.47-10.22-.25-3.75-.61-7.5-1-11.24-.1-1,1.83-3,3-3.5,2.84-1.27,5.67-.33,8.3.27,1.6.37,3.2,2.23,4.12,3.81,3.7,6.36,8.7,11.57,13.82,16.74,3.93,4,7.62,8.19,11.32,12.37,2.31,2.61,4.53,5.31,6.63,8.08,1.52,2,2.68,4.28,4.16,6.32A102.65,102.65,0,0,0,154.32,58c1,1,2.17,2.66,4.21,2.41.36,0,.89.58,1.2,1a20,20,0,0,1,1.37,2.22c1.78,3.11.53,8.27-3.6,8.63A12.5,12.5,0,0,0,151,74.8a25,25,0,0,0-2.92,3c-2.12,2.25-4.2,4.53-6.36,6.73-3.19,3.23-6.5,6.35-9.64,9.64-1.41,1.49-2.46,3.32-3.8,4.89-2.24,2.6-4.74,5-6.83,7.7-1.32,1.7-3.17,3-3.69,5.44-.27,1.26-1.92,2.33-3.12,3.26a9,9,0,0,1-11.23.12c-.67-.5-.94-1.53-1.38-2.33a7.23,7.23,0,0,1-.67-1.44,5.65,5.65,0,0,1-.07-1.37,3.06,3.06,0,0,0,0-1,3.29,3.29,0,0,1,.19-3.47c.81-1.38.5-3.48.48-5.27,0-4.76-.19-9.51-.29-14.27a3.71,3.71,0,0,1,.12-.73c.42-2.33-.13-2.87-2.43-2.24-6.15,1.67-12.43,3-18.41,5.17s-12,5.23-17.92,8c-2.58,1.18-5.16,2.39-7.63,3.78Q47.1,105.07,38.89,110c-3.38,2-6.69,4.12-10,6.28-1.48,1-2.7,2.36-4.21,3.27-2.13,1.29-4.35.52-6.49-.22C17,118.86,15.86,118.37,14.5,117.84Zm19-19.41c2.81-1.65,5.32-3.22,7.91-4.63,3.62-2,7.28-3.88,11-5.68,5.61-2.71,11.16-5.65,17-7.86,6.79-2.59,13.83-4.51,20.76-6.72,1-.32,2-.68,3-.94,3.58-.9,7.18-1.69,10.73-2.67,2.44-.67,4.21,0,6.17,1.6a30.65,30.65,0,0,1,5,4.79,4.31,4.31,0,0,1,.74,3.59,61.65,61.65,0,0,0-.38,9.23c0,1.36.12,2.73.2,4.43a7.72,7.72,0,0,0,1-.72c3-3.25,5.84-6.55,8.84-9.74s6.29-6.56,9.5-9.78c2.71-2.71,5.45-5.4,8.3-8,.93-.83,1-1.45.4-2.35q-1.36-2-2.75-3.94c-2.28-3.22-4.53-6.45-6.84-9.64-1.36-1.89-2.79-3.73-4.18-5.59a83,83,0,0,0-5.29-7C120,32,115.23,27.36,110.28,22.32A69.35,69.35,0,0,0,112,40.2a21.93,21.93,0,0,0,4.7,9.4c-1.46,2-1.66,4.94-4.85,5.58-2.52.51-4.85,1.89-7.54.39a13.59,13.59,0,0,0-4.57-1.36c-4.21-.59-8.43-1.1-12.67-1.46a63.44,63.44,0,0,0-9.64-.3,297.12,297.12,0,0,0-36.7,5.32C35,58.91,29.2,60.12,23.43,61.3c-1.24.26-2.46.55-3.59.8,1.93,2.48,3.82,4.79,5.57,7.19,1.21,1.64,2.27,3.39,3.34,5.12,2.86,4.58,5.27,9.3,5,15C33.54,92.25,33.56,95.14,33.49,98.43Z"/></g></g></svg>