<svg xmlns="http://www.w3.org/2000/svg" viewBox="0 0 44.66 160.48"><defs><style>.cls-1{fill:#1e1c1c;}</style></defs><g id="Layer_2" data-name="Layer 2"><g id="Layer_1-2" data-name="Layer 1"><path class="cls-1" d="M44.66,39.24h-43V32.43H11.88V6.81H1.65V0h43V6.81h-26V32.43h26ZM11.88,78.5V54.34L1.65,49.54v-6.7L44.66,63v6.78L1.65,90v-6.7Zm6.81-3.19,18.92-8.89L18.69,57.54ZM1.53,160.21A38.82,38.82,0,0,1,0,149.38H0c0-9.55,2.87-15,5.71-20.37s5.87-10.95,6.17-21.88v-6.72H1.65V93.6h43v18a16.38,16.38,0,0,1-28.53,11,62.43,62.43,0,0,1-4.41,9.61c-2.68,5-4.91,9.32-4.91,17.16h0a32,32,0,0,0,1.09,8.33Zm26.74-39a9.59,9.59,0,0,0,9.58-9.58v-11.2H18.69v11.2A9.59,9.59,0,0,0,28.27,121.19Zm-5.38,34.47a8.8,8.8,0,1,1,12.44-.12l4.82,4.82a15.62,15.62,0,1,0-22.08.12Z"/></g></g></svg>