<svg xmlns="http://www.w3.org/2000/svg" viewBox="0 0 179.65 50"><defs><style>.cls-1{fill:#121212;}</style></defs><g id="Layer_2" data-name="Layer 2"><g id="Layer_1-2" data-name="Layer 1"><path class="cls-1" d="M43.93,0V48.15H36.31V36.7H7.62V48.15H0V0H7.62V29.07H36.31V0Zm44,36.7h-27L55.46,48.15H48L70.57,0h7.59l22.6,48.15h-7.5Zm-3.58-7.63-10-21.18L64.42,29.07Zm95,19.22A43.66,43.66,0,0,1,167.23,50h0c-10.68,0-16.84-3.21-22.8-6.4S132.16,37,119.93,36.7h-7.52V48.15h-7.62V0h20.15a18.35,18.35,0,0,1,12.33,31.94A70,70,0,0,1,148,36.88c5.6,3,10.43,5.5,19.2,5.5h0a36,36,0,0,0,9.33-1.22ZM135.67,18.35A10.74,10.74,0,0,0,124.94,7.62H112.41V29.07h12.53A10.74,10.74,0,0,0,135.67,18.35Zm38.59,6a9.87,9.87,0,1,1-.14-13.93l5.4-5.4a17.49,17.49,0,1,0,.13,24.72Z"/></g></g></svg>