<svg xmlns="http://www.w3.org/2000/svg" viewBox="0 0 168.69 129.45"><defs><style>.cls-1{fill:#fff;}</style></defs><g id="Layer_2" data-name="Layer 2"><g id="Layer_1-2" data-name="Layer 1"><g id="qyZpVO.tif"><path class="cls-1" d="M81.67,44.64c.62-1.64,1.14-3.34,1.88-4.93a28.46,28.46,0,0,1,2.65-4.66,13.17,13.17,0,0,1,3-2.89c2.23-1.56,4.74-2.75,6.85-4.47,2.82-2.3,5.94-1.76,9.07-1.5a17.23,17.23,0,0,1,5.11.78,45.93,45.93,0,0,1,6.24,3.53,17.85,17.85,0,0,1,2.79,2c.91.83,1.66,1.84,2.5,2.75a30.26,30.26,0,0,1,2.66,2.9c1,1.52,1.87,3.2,2.82,4.79a35,35,0,0,1,2.08,3.39c.57,1.24.8,2.64,1.28,3.93,1.1,2.95,2.46,5.81,3.36,8.81a46,46,0,0,1,1.33,7.59,37.3,37.3,0,0,1,.21,6c-.07,1.55-.48,3.08-.7,4.62,0,.28.21.61.15.87a4.73,4.73,0,0,1-.5,1.16c-.25.51-.6,1-.8,1.52-1,2.57-1.69,5.27-2.9,7.72-1.78,3.6-3.91,7-5.86,10.52-1.12,2-2.11,4.12-3.26,6.12-1.3,2.28-2.71,4.5-4.08,6.75-1.6,2.63-3.27,5.22-4.78,7.9-1,1.72-1.52,3.69-2.61,5.31a6.57,6.57,0,0,1-3.27,2.71,21.3,21.3,0,0,1-6.53.37c-1-.07-1.88-1.1-2.87-1.56-1.88-.87-3.78-1.7-5.72-2.43-2.68-1-5.47-1.74-8.09-2.87-3.78-1.62-7.49-3.43-11.16-5.29a73.1,73.1,0,0,1-7.45-4.26c-3.2-2.13-6.3-4.42-9.36-6.75A56,56,0,0,1,49,99.52a74,74,0,0,1-6.33-7.77C41.4,90,40.43,88,39.29,86.11a11.29,11.29,0,0,1-1.06-1.49,41.24,41.24,0,0,1-2.32-6.34c-.6-2.69-.68-5.49-1.1-8.23-.21-1.41-.79-2.77-1-4.18a8.35,8.35,0,0,1,.5-2.53c.69-3,1-6.18,2.19-9,.88-2.07,2.88-3.68,4.42-5.47a9.41,9.41,0,0,1,2-1.88,12.18,12.18,0,0,1,2.5-.9c2.91-1,5.76-2.2,8.73-2.94a45.89,45.89,0,0,1,7.15-.8,17.62,17.62,0,0,1,4.23,0,30.21,30.21,0,0,1,3.88,1.34c2.37.73,4.8,1.3,7.14,2.12.69.23,1.13,1.12,1.77,1.59a18.75,18.75,0,0,0,2.11,1.18c.3-.69.62-1.37.89-2.06s.38-1.19.57-1.78Zm4.83,12.5.68.19c-.24.87-.22,2.19-.78,2.53-1.28.76-3,1.69-4.26,1.35A5.79,5.79,0,0,1,78.57,58c-.81-2.94-3-4.42-5-6.2-.74-.66-2-.76-2.91-1.22-.74-.36-1.35-1.2-2.08-1.29a52.93,52.93,0,0,0-7.75-.44,40.78,40.78,0,0,0-5.57,1.07c-1.45.26-3.17,0-4.32.72a19,19,0,0,0-5.42,4.76,16.6,16.6,0,0,0-3.21,7.24c-.37,3.1.35,6.37.76,9.54a37.33,37.33,0,0,0,1.31,6.09,22.36,22.36,0,0,0,2.15,4.63,49.25,49.25,0,0,0,3.88,5.73,63.89,63.89,0,0,0,6.06,6.87,75.08,75.08,0,0,0,6.56,5c1.65,1.26,3.19,2.68,4.93,3.79,2.41,1.55,4.91,2.95,7.45,4.26,2.8,1.46,5.67,2.8,8.57,4.08,2,.88,4,1.6,6,2.32,3.64,1.29,7.29,2.62,11,3.74a3.35,3.35,0,0,0,2.87-.53c1-1.09,1.53-2.66,2.35-4,2.08-3.32,4.26-6.58,6.32-9.92.9-1.45,1.52-3.07,2.4-4.53,1.47-2.41,3.06-4.75,4.54-7.16a11.71,11.71,0,0,0,.89-2.12c.38-1,.67-2,1.12-3,.75-1.6,1.71-3.11,2.38-4.73a40.12,40.12,0,0,0,1.6-5c.71-2.61,1.7-5.22,1.86-7.87a31.29,31.29,0,0,0-.93-7.95,35.85,35.85,0,0,0-1.92-5.59,52.92,52.92,0,0,0-2.49-5.9c-1.73-3.24-3.59-6.42-5.57-9.51a11.61,11.61,0,0,0-2.94-2.95,71,71,0,0,0-6.16-4.05,6.23,6.23,0,0,0-2.6-.58,7,7,0,0,0-3.07.15c-1.81.77-3.4,2.08-5.22,2.8-3.21,1.27-4.8,3.89-6,6.78a46.08,46.08,0,0,0-1.67,5.88C88,51.65,87.24,54.39,86.5,57.14Z"/><path class="cls-1" d="M147.71.72A15.74,15.74,0,0,1,150.18,0a1.74,1.74,0,0,1,1.27.52c.77.78,2,1.67,2,2.5a8.19,8.19,0,0,1-1.55,3.66,21.55,21.55,0,0,1-2.65,3.51c-1,1.11-2.39,2-3.42,3.07-1.21,1.32-2.19,2.85-3.34,4.22-.91,1.08-2,2-2.89,3.12a33.16,33.16,0,0,0-2.67,3.68A4.12,4.12,0,0,1,131.39,26a16,16,0,0,1-3.65-2.65c-.24-.25.46-1.68,1-2.35,1.13-1.41,2.43-2.68,3.67-4,1.89-2,3.83-4,5.68-6.08s3.36-4,5-5.94Q145,2.76,147,.56c.12-.12.42-.08.64-.11Z"/><path class="cls-1" d="M141.13,35.76c1.1-1.44,1.7-2.38,2.45-3.18a21.6,21.6,0,0,1,3.22-3A39.4,39.4,0,0,1,151,27.35c1.49-.78,3-1.59,4.47-2.35a56.82,56.82,0,0,1,6.17-3,6.83,6.83,0,0,1,4.15-.3c1.94.65,1.91,5.45,0,6.49-2.71,1.46-5.69,2.42-8.36,3.95s-5.35,3.71-8.11,5.44c-1.13.71-2.69,1.65-3.73,1.35C144,38.46,142.79,37,141.13,35.76Z"/><path class="cls-1" d="M27.14,70.49c0,2.68-2.08,3.92-5.8,4.36-3.19.38-6.28,1.47-9.43,2.12-2.37.49-4.87,1.35-7.13,1C3.08,77.68.42,77.36,0,74.66c-.09-.6,0-1.56.38-1.83a10.08,10.08,0,0,1,3.37-1.65c1.71-.42,3.51-.45,5.26-.75,3.19-.56,6.37-1.17,9.54-1.81,1.85-.37,3.68-.82,5.51-1.25C25.49,67,27.16,68.74,27.14,70.49Z"/><path class="cls-1" d="M32.7,93.71a16.75,16.75,0,0,1-2.58,2.62,36.13,36.13,0,0,1-4.52,2.29c-2.55,1.23-5.09,2.49-7.66,3.67-1.53.69-3.21,1.92-4.64,1.7-1.77-.26-3.5-1.62-4.88-2.9-.25-.23,1-2.77,2-3.52,1.35-1,3.27-1.06,4.85-1.75C17.2,95,19,93.86,20.83,93S25,91.35,27,90.59a17.27,17.27,0,0,1,3.14-.89c.31,0,.86.38,1.06.73C31.71,91.3,32.06,92.24,32.7,93.71Z"/><path class="cls-1" d="M14.61,29.31l5.33,2.9c2.14,1.15,4.23,2.39,6.42,3.4s4.52,1.57,6.59,2.71c1,.54,2.33,2.46,2.09,2.85A17.45,17.45,0,0,1,31.18,45c-.2.16-1.09-.53-1.67-.8C27.15,43.14,24.8,42,22.41,41c-1.8-.78-3.71-1.32-5.45-2.2-1.51-.77-2.77-2-4.29-2.79a3.09,3.09,0,0,1-1.6-4.2C11.5,30.74,13.23,30.21,14.61,29.31Z"/><path class="cls-1" d="M25.13,49.68A8.76,8.76,0,0,0,25.89,51c1,1.15,0,3.29-2,3.6-3.63.56-7.3.91-11,1.12a30.54,30.54,0,0,1-7.53-.28,6.62,6.62,0,0,1-3.9-2.54C0,50.74,1,49.05,3.8,48.84c2.35-.17,4.74.29,7.12.25,2.88-.05,5.75-.38,8.63-.48,1.84-.07,3.68,0,5.51.13.14,0,.25.51.37.78Z"/><path class="cls-1" d="M165.54,81.62c.08,3.52-1.08,5.41-3,5.07a34.77,34.77,0,0,1-4.12-1.35,68.51,68.51,0,0,1-6.55-2.11,39.21,39.21,0,0,1-6.31-3.57,6.63,6.63,0,0,1-2.38-3c-.16-.44,1.09-1.88,1.91-2.12a11,11,0,0,1,5.06-.43c1.57.35,2.88,1.74,4.4,2.45s3,1,4.48,1.55c2.09.81,4.17,1.67,6.2,2.62C165.55,80.89,165.54,81.62,165.54,81.62Z"/><path class="cls-1" d="M164.68,60.06a7.47,7.47,0,0,0-2.78-1.21c-3.4-.22-6.82-.06-10.23-.19-1.51,0-3.3,0-4.4-.81-.88-.63-1.62-2.82-1.18-3.65,1-1.88,3.16-2.32,5.33-2.28s4.58-.13,6.86-.05c1.83.07,3.65.44,5.48.59a6.8,6.8,0,0,0,1.76-.25c2.77-.52,2.42,1.86,3,3.29C169.29,57.47,167.47,60.05,164.68,60.06Z"/><path class="cls-1" d="M46.78,109.11c.07,3.08-1.7,4.28-3.81,5.46a26.76,26.76,0,0,0-6,4.32c-2.32,2.37-7.59,2.5-9.17-.39-.36-.66.76-2.64,1.7-3.4a73.42,73.42,0,0,1,9.59-6.77c1.75-1,4.1-1.07,6.19-1.17C45.8,107.14,46.41,108.61,46.78,109.11Z"/><path class="cls-1" d="M64.12,120.05c-1.26,1.68-2.27,3.17-3.45,4.52-1.32,1.53-2.56,3.42-4.28,4.25A6.82,6.82,0,0,1,51,129c-2.67-1.41-2.19-3.33.8-6,1.18-1.07,1.87-2.71,3.12-3.66a17.14,17.14,0,0,1,4.52-2c.74-.26,1.85-.48,2.36-.11A13.74,13.74,0,0,1,64.12,120.05Z"/><path class="cls-1" d="M121.4,20.82a61.45,61.45,0,0,1-6-3.09c-.29-.18.07-2.12.65-2.8a29.07,29.07,0,0,1,5.6-5.38c1.69-1.12,4-1.37,6-2,.16,1.44.88,3.1.39,4.27a49,49,0,0,1-4.24,7.25C123.41,19.64,122.62,20,121.4,20.82Z"/><path class="cls-1" d="M150.35,99.14a26.45,26.45,0,0,1-.07,4.28,2.09,2.09,0,0,1-1.48,1.29,8.26,8.26,0,0,1-3.46-.52c-2.57-1.09-5.05-2.36-7.54-3.63-.51-.27-1.31-.94-1.24-1.24.34-1.37.56-3.17,1.52-3.94,3.09-2.48,5.73-.32,8.36,1.36.58.37,1.5.21,2.07.59A11.73,11.73,0,0,1,150.35,99.14Z"/></g></g></g></svg>