<svg xmlns="http://www.w3.org/2000/svg" viewBox="0 0 29.62 29.65"><defs><style>.cls-1{fill:#1e1c1c;}</style></defs><g id="Layer_2" data-name="Layer 2"><g id="Layer_1-2" data-name="Layer 1"><path class="cls-1" d="M14.81,0c2,0,4,.06,6,.11a9.76,9.76,0,0,1,4.9,1.27A7.38,7.38,0,0,1,29.26,6.6a25.58,25.58,0,0,1,.34,4.1c0,2.94,0,5.88,0,8.83A14.42,14.42,0,0,1,29,24.1a7.44,7.44,0,0,1-6,5.19,23.28,23.28,0,0,1-4.09.34c-2.93,0-5.87,0-8.8,0A14.52,14.52,0,0,1,5.56,29a7.42,7.42,0,0,1-5.2-6A23.38,23.38,0,0,1,0,19C0,16,0,13.1,0,10.16A14.45,14.45,0,0,1,.61,5.58a7.45,7.45,0,0,1,6-5.19,29.45,29.45,0,0,1,4.1-.34c1.37,0,2.74,0,4.12,0ZM2.62,14.83h.06c0,1.25,0,2.49,0,3.74s.07,2.27.19,3.39a5,5,0,0,0,4.18,4.68,23.29,23.29,0,0,0,4,.32c2.5,0,5,0,7.5,0,1.12,0,2.25-.07,3.37-.18a5,5,0,0,0,4.68-4.18,24,24,0,0,0,.32-4.07c.05-2.46,0-4.93,0-7.4a27,27,0,0,0-.26-3.81,4.89,4.89,0,0,0-3.9-4.26,14.81,14.81,0,0,0-3.51-.32c-2.08,0-4.16-.06-6.23,0-1.79,0-3.57.08-5.35.2A5.15,5.15,0,0,0,4.57,4.23,5.57,5.57,0,0,0,2.81,8.32C2.71,10.49,2.68,12.66,2.62,14.83Z"/><path class="cls-1" d="M14.8,22.45a7.61,7.61,0,1,1,7.62-7.54A7.57,7.57,0,0,1,14.8,22.45Zm0-12.54a4.94,4.94,0,1,0,4.92,4.95A4.95,4.95,0,0,0,14.83,9.91Z"/><path class="cls-1" d="M24.49,6.93a1.78,1.78,0,0,1-1.78,1.8,1.81,1.81,0,0,1-1.78-1.81,1.77,1.77,0,0,1,1.78-1.76A1.74,1.74,0,0,1,24.49,6.93Z"/></g></g></svg>