<svg xmlns="http://www.w3.org/2000/svg" viewBox="0 0 31.47 30.27"><defs><style>.cls-1{fill:#fff;}</style></defs><g id="Layer_2" data-name="Layer 2"><g id="Layer_1-2" data-name="Layer 1"><path class="cls-1" d="M28.75,5.3c-10.41-.41-15.62-.41-26,0A2.4,2.4,0,0,1,.13,2.92h0A2.7,2.7,0,0,1,2.74.31c10.39-.41,15.6-.41,26,0a2.69,2.69,0,0,1,2.61,2.61h0A2.4,2.4,0,0,1,28.75,5.3Z"/><path class="cls-1" d="M28.86,30.27c-10.49-.41-15.75-.41-26.25,0A2.41,2.41,0,0,1,0,27.89H0a2.72,2.72,0,0,1,2.63-2.61c10.48-.41,15.73-.41,26.21,0a2.7,2.7,0,0,1,2.63,2.61h0A2.41,2.41,0,0,1,28.86,30.27Z"/><path class="cls-1" d="M28.81,17.79c-10.45-.41-15.69-.41-26.14,0A2.42,2.42,0,0,1,.07,15.4h0a2.7,2.7,0,0,1,2.62-2.61c10.43-.41,15.66-.41,26.1,0a2.71,2.71,0,0,1,2.62,2.61h0A2.42,2.42,0,0,1,28.81,17.79Z"/></g></g></svg>