<svg xmlns="http://www.w3.org/2000/svg" viewBox="0 0 247.69 175.32"><defs><style>.cls-1{fill:#fff;}</style></defs><g id="Layer_2" data-name="Layer 2"><g id="Rollovers"><path class="cls-1" d="M234.22,105.48c-2.19,5.39-4,10.38-6.23,15.18-3.2,6.87-8.2,12.4-13.71,17.55-7.36,6.87-16.21,11.14-25.35,14.92-4.48,1.85-9.16,3.22-13.69,5a3.46,3.46,0,0,0-1.72,2c-1.2,3.64-2.13,7.38-3.4,11-.37,1-1.53,2.37-2.44,2.47-2,.2-4.07,0-5.36-2.07-1.87-3-.48-6-.22-9.06a10.33,10.33,0,0,1,.38-1.5c-1.47.35-2.67.63-3.86.94-1.38.36-3,.42-4.07,1.21a15.06,15.06,0,0,0-3.39,4c-1.3,2-2.33,4.19-3.54,6.26a4.43,4.43,0,0,1-5.21,1.67c-2.82-1.37-4.26-4-3.1-6.36a63,63,0,0,1,4.33-7.15c2-3.07,2-3.58-1-5.59a47.32,47.32,0,0,0-3.9-2.75c-2.27-1.25-2.75-3.25-2.72-5.55,0-1.69,1.08-2.54,2.6-1.75,4,2,7.91,4.14,11.67,6.52a5.51,5.51,0,0,0,4.64,1c1.75-.43,3.53-.72,5.95-1.2-2.51-2.13-4.57-3.83-6.56-5.61-1.65-1.47-3.28-3-3-5.54s1.78-3.8,4.16-2.44c3.4,1.95,6.61,4.23,9.85,6.45,1.62,1.1,3.09,2.44,4.72,3.52a3,3,0,0,0,2.27.49c3.83-1.2,7.71-2.35,11.39-3.92,6.71-2.85,13.35-5.85,19.27-10.23a55.13,55.13,0,0,0,20.21-28.45c.45-1.44.87-2.88,1.49-5-2.19.84-3.86,1.59-5.59,2.13a74.08,74.08,0,0,1-7.69,2.09,6.48,6.48,0,0,1-6.49-3.28c-1.25-2.29-.21-4.49,2.52-5.18a78.11,78.11,0,0,0,20.45-8.14c1.78-1,3.59-.72,5.43.12,2.85,1.31,5.06,3,6.13,6.19.64,1.91,2.08,3.54,3,5.38,1.73,3.55,3.37,7.14,5,10.74.88,2-.35,3.37-1.55,4.62s-2.41.77-3.94.24c-2.62-.93-3.64-3-4.74-5.12C236.2,109.41,235.27,107.54,234.22,105.48Z"/><path class="cls-1" d="M72.64,9.22l-7.58-.61c-3.23-.28-5.91-1.43-7.46-4.53-.85-1.69-.45-2.87,1.34-3.29A19.91,19.91,0,0,1,64.54,0c5.61.32,11.2.92,16.8,1.37a18.43,18.43,0,0,0,4.51.07C89,.92,91.7,4.65,91.39,7.67c-.53,5.23-1,10.54.27,15.85.29,1.23-1.22,3.12-2.28,4.39-1.21,1.44-2.95,1.27-4.55.38A6.56,6.56,0,0,1,81.29,22c0-1.72-.21-3.45-.35-5.63-4.09,2-8.14,3.47-11.59,5.8C61,27.8,52.27,33.27,44.74,40A114.66,114.66,0,0,0,23.27,65.44c-5.38,8.76-8.83,18.23-11.84,27.91-1,3.21-1.23,6.67-1.78,9.83-1,.19-2,.3-3,.57-3,.85-7.18-2.64-6.63-5.68C2.1,86.72,5.51,75.82,11.49,65.87a176,176,0,0,1,10.34-16A104,104,0,0,1,41.06,30.07c6.44-4.93,13-9.78,19.67-14.34C64.32,13.28,68.37,11.52,72.64,9.22Z"/><path class="cls-1" d="M120.62,45.13A85.86,85.86,0,0,0,112.5,40c-2.24-1.11-2.36-3.36-3.51-5-.17-.25.67-1.69,1.29-1.92,2.45-.93,5-1.39,7.35.33q6.56,4.73,13.11,9.46a19.39,19.39,0,0,0,2.08,1.4,5.31,5.31,0,0,1,1.3,8.44c-1.39,1.46-2.53,3.16-4,4.58-2.47,2.44-3.8,5.64-5.87,8.3a7.2,7.2,0,0,1-5,2.5c-2.48,0-4.72-2.69-4.73-4.92a5,5,0,0,1,1.25-2.53c.57-.79,1.45-1.36,2-2.15.83-1.16,1.5-2.44,2.65-4.36-3.58.52-6.59.92-9.6,1.4-2.48.41-4.93,1-7.41,1.37-2.71.46-7.09-2.46-7.38-5.19a3.23,3.23,0,0,1,1.73-2.5,29.86,29.86,0,0,1,6.16-1.53C109.26,46.76,114.6,46,120.62,45.13Z"/><path class="cls-1" d="M48.75,76.43A12.1,12.1,0,0,1,47,80C42.1,85.22,38.35,91,37.08,98.19c-.59,3.33-2.22,4.77-5.08,4.29a5.7,5.7,0,0,1-4.73-6.15c.4-4.75,2.41-8.88,4.79-12.84a101.93,101.93,0,0,1,6.17-9.21c.7-.93,2.12-1.4,3.29-1.86C44.81,71.13,48,72.59,48.75,76.43Z"/><path class="cls-1" d="M84.69,56.19a5.22,5.22,0,0,1-2.91,5.4C75.47,64.67,69.17,67.78,63,71c-2.66,1.4-8-.15-8.84-3a3.24,3.24,0,0,1,1.12-2.79c3.75-2.38,7.63-4.56,11.52-6.73,2.77-1.55,5.57-3.05,8.45-4.41a19.2,19.2,0,0,1,4.91-1.54C81.85,52.24,84.28,54.35,84.69,56.19Z"/></g></g></svg>