<svg xmlns="http://www.w3.org/2000/svg" viewBox="0 0 280.77 85.91"><defs><style>.cls-1{fill:#fff;}</style></defs><g id="Layer_2" data-name="Layer 2"><g id="Layer_1-2" data-name="Layer 1"><path class="cls-1" d="M48.19,0c1.79.39,3.59.74,5.37,1.19A42.69,42.69,0,0,1,85.71,38.27c1.46,14.61-3.35,26.94-14.12,36.78A41,41,0,0,1,45.34,85.84a41.53,41.53,0,0,1-28.4-8.68A41.78,41.78,0,0,1,.28,47.53,41.76,41.76,0,0,1,8.85,16.74,42.07,42.07,0,0,1,36.59.31C37,.24,37.4.1,37.8,0ZM42.66,3.79c-21.12-.36-39.13,17-39.14,39A39,39,0,0,0,42.59,81.92c21.91,0,38.9-17.89,39.05-39C81.79,21.21,63.32,3.27,42.66,3.79Z"/><path class="cls-1" d="M42.55,80.12c-20.86.1-37.4-17.35-37.25-37.46A37.17,37.17,0,0,1,42.48,5.44,36.93,36.93,0,0,1,79.9,42.75,37,37,0,0,1,42.55,80.12Zm29-51.32c-1.39-1.57-3.68-2.68-7.08-3.51-3.18-.78-3.6-.4-5.08,2.51a18.89,18.89,0,0,1-3.75,4.92c-.57.56-2,.26-3,.35A9.32,9.32,0,0,1,53,30.28c1-2.11,3-3.2,4.92-4.23,2.71-1.43,2.81-1.52,2.1-4.52a21.2,21.2,0,0,0-3.75-8.06c-2.42,7.75-4.74,15.21-7.19,23.06ZM49.45,49.31,56.71,70.7A19.77,19.77,0,0,0,60.31,61c0-.5-.71-1.22-1.26-1.6-1-.72-2.19-1.23-3.25-1.9a7,7,0,0,1-3.38-4.36c-.28-1.25.3-2.07,1.45-1.67a8.83,8.83,0,0,1,3.57,2.28A20,20,0,0,1,59.83,58c.87,1.73,1.63,2.25,3.51,1.81a35.62,35.62,0,0,0,5.23-1.64,24.88,24.88,0,0,0,3.4-2l-.1-.49ZM13.1,55.7a18.85,18.85,0,0,0,10,4.18,2.27,2.27,0,0,0,2.42-1.62,14.7,14.7,0,0,1,1.69-3.36,18.92,18.92,0,0,1,3.54-3.2,1.91,1.91,0,0,1,1.86,0,2.41,2.41,0,0,1,.24,2,5.35,5.35,0,0,1-1.52,2.34A37.55,37.55,0,0,1,27,59c-1,.6-1.9,1.22-1.74,2.53a21,21,0,0,0,3,8.38C30.93,63,33.49,56.43,36,49.83l-.37-.34ZM14,28.35l22.22,8.16L28.19,15a14,14,0,0,0-.82,1.46c-.53,1.26-1.08,2.51-1.51,3.81-1.26,3.85-1,4.33,2.47,6.17a3.83,3.83,0,0,1,1.08.63A35.24,35.24,0,0,1,32.81,31a2.3,2.3,0,0,1-.15,2.14c-.24.34-1.42.28-2,0a6.41,6.41,0,0,1-2.46-1.85c-1-1.38-1.65-3-2.62-4.45-.51-.74-1.39-1.75-2.1-1.75C20.18,25,17.23,26.33,14,28.35ZM20.7,47.6c1.15,0,2.3,0,3.45,0a1.16,1.16,0,0,0,1.34-1.33q0-3.22,0-6.44c0-.91-.4-1.36-1.32-1.35H17.42a1.15,1.15,0,0,0-1.33,1.33q0,3.23,0,6.44c0,.91.4,1.36,1.32,1.35C18.51,47.59,19.61,47.6,20.7,47.6Zm32.71,0c1.15,0,2.3,0,3.45,0,.87,0,1.39-.33,1.39-1.28,0-2.2.06-4.4-.06-6.59A1.78,1.78,0,0,0,57,38.55a24,24,0,0,0-3.6-.07c-4.54,0-4.54,0-4.54,4.58S48.84,47.61,53.41,47.6ZM42.58,25.53c1.05,0,2.09,0,3.14,0s1.54-.4,1.52-1.48c0-2,0-4.09,0-6.13,0-1.05-.4-1.55-1.48-1.53q-3.06,0-6.12,0c-1,0-1.54.41-1.52,1.48,0,2.05,0,4.09,0,6.13,0,1,.4,1.56,1.48,1.53S41.59,25.53,42.58,25.53Zm0,43.84c1.09,0,2.19,0,3.29,0,.92,0,1.33-.44,1.32-1.35q0-3.22,0-6.44c0-.93-.44-1.33-1.35-1.33-2.14,0-4.29,0-6.43,0-.92,0-1.33.44-1.32,1.35q0,3.21,0,6.44c0,.92.44,1.33,1.35,1.32S41.57,69.37,42.62,69.37Zm.06-41.92c-4.56,0-4.56,0-4.56,4.56s0,4.57,4.56,4.57,4.56,0,4.56-4.57S47.24,27.45,42.68,27.45Zm4.56,26.37c0-1,0-2,0-3s-.37-1.66-1.54-1.63c-2,0-4.08,0-6.12,0-1.09,0-1.49.5-1.47,1.54,0,2,0,4.08,0,6.12,0,1.09.5,1.51,1.53,1.48s2.1,0,3.14,0C47.24,58.35,47.24,58.35,47.24,53.82ZM64.45,38.48c-4.59,0-4.59,0-4.59,4.54s0,4.59,4.53,4.59,4.59,0,4.59-4.53S69,38.48,64.45,38.48Zm-21.82,0c-1,0-2,0-3,0s-1.55.39-1.53,1.47q0,3.07,0,6.13c0,1,.38,1.55,1.47,1.54,2,0,4.08,0,6.12,0,1.18,0,1.56-.53,1.54-1.63,0-1.94-.06-3.88,0-5.82,0-1.33-.56-1.77-1.8-1.7C44.52,38.52,43.58,38.48,42.63,38.48ZM27.1,42.93c0,4.68,0,4.68,4.75,4.68,4.37,0,4.37,0,4.37-4.44,0-4.69,0-4.72-4.75-4.68C26.4,38.52,27.17,37.79,27.1,42.93ZM36.17,55.5l-.35-.07C33.88,60.86,31.93,66.28,30,71.71a1,1,0,0,0,.16.85,14.73,14.73,0,0,0,6,4.09Zm-.33-26.16.27,0V8c-1.6,1-3,1.71-4.23,2.62-2.14,1.56-2.14,1.74-1.26,4.24.11.29.2.6.3.89ZM29,36.52l.05-.34c-5.46-2-10.92-3.91-16.39-5.82a1.44,1.44,0,0,0-1.23.36,11.41,11.41,0,0,0-3,5.8Zm48-.09a11.12,11.12,0,0,0-3.33-5.9c-.23-.21-.88-.11-1.27,0q-5.36,1.8-10.69,3.67c-1.91.67-3.8,1.37-6.07,2.2Zm-28.19-6.5h.34c1.52-4.8,3.13-9.58,4.52-14.42.37-1.3,1.79-2.71.64-4a18.74,18.74,0,0,0-3.67-2.66c-.09-.06-.19-.09-.28-.14-1.07-.58-1.56-.27-1.55,1,0,2.31,0,4.62,0,6.93Zm.36,25.25-.36.06v10.2c0,3.25,0,6.5,0,9.75,0,1.16.43,1.62,1.52,1a25.14,25.14,0,0,0,3.51-2.33A2.29,2.29,0,0,0,54.39,72a39.37,39.37,0,0,0-1.22-4.06Q51.19,61.54,49.2,55.18ZM42.65,14.5c1,0,2,0,3,0s1.64-.42,1.61-1.58a30.3,30.3,0,0,1,0-3.93c.12-1.22-.49-1.63-1.51-1.66-1.62-.07-3.25-.08-4.87-.07-2.79,0-2.79,0-2.78,2.78C38.13,14.5,38.13,14.5,42.65,14.5ZM70.88,43.09c0,1,0,2,0,3s.39,1.56,1.48,1.54c1.35,0,2.72.07,4.07,0,.42,0,1.1-.52,1.15-.88A24.7,24.7,0,0,0,78,41.58c-.2-3.11-.31-3.1-3.4-3.1a16.41,16.41,0,0,1-1.72,0c-1.47-.14-2.17.41-2,2C70.94,41.31,70.88,42.2,70.88,43.09ZM7.81,38.28a23.27,23.27,0,0,0,.37,9.33c1.76,0,3.31,0,4.87,0,1,0,1.44-.42,1.43-1.41,0-1.83,0-3.66,0-5.49,0-2.16-.06-2.19-2.19-2.24C10.85,38.45,9.4,38.35,7.81,38.28ZM42.72,71c-1,0-2,0-3,0s-1.66.4-1.62,1.56a21.37,21.37,0,0,1,0,3.3c-.14,1.22.47,1.64,1.49,1.67,1.89.06,3.78,0,5.66.06,1.44,0,2.11-.45,2-2.13C47.12,71,47.21,71,42.72,71Zm13.4-21.63,0,.16c5.53,1.44,11,2.9,16.6,4.31a2,2,0,0,0,1.59-.17,7.16,7.16,0,0,0,2.31-4.3Zm-27.2.14,0-.28c-5.4,0-10.8,0-16.19,0a34.33,34.33,0,0,0-3.64.4c.61,1.25,1.15,2.53,1.86,3.72a1.45,1.45,0,0,0,1.28.5C17.78,52.44,23.35,51,28.92,49.49ZM25.27,12.9c-4,1.72-10.89,8.49-11.85,11.65,2.42-.84,5-1.72,7.63-2.67a2.08,2.08,0,0,0,1.14-.95C23.26,18.27,24.25,15.58,25.27,12.9Zm-.13,59.45c-1-2.79-1.95-5.4-3-8a2.68,2.68,0,0,0-1.3-1.18c-2.31-1.1-4.65-2.11-7-3.15a7.3,7.3,0,0,0-.94-.24A34.72,34.72,0,0,0,25.14,72.35ZM60.91,13.21c.88,2.5,1.79,4.85,2.52,7.24a2.48,2.48,0,0,0,1.85,1.84c2.17.73,4.27,1.67,6.41,2.51a5.76,5.76,0,0,0,1,.12C69.42,20,65.82,16,60.91,13.21ZM61,71.84c4.61-2.94,8.68-6.32,11.2-11.24-1.56.52-3,1.53-4.46,1.77-3.2.51-4.56,2.34-5.11,5.33A22.24,22.24,0,0,1,61,71.84Z"/><path class="cls-1" d="M211.21,64.26a9.5,9.5,0,0,1-2.61-.07v-.75c0-1.44.07-2.87.08-4.31,0-1.23-.05-2.47-.08-3.7,0-.85,0-1.71,0-2.56,0-.64,0-1.27,0-1.9s0-1,0-1.55a1.33,1.33,0,0,1,.2-.85c.12-.19.32-.32.5-.22s.4,0,.6,0l1.05,0,2.33.09,2.92.15a5,5,0,0,0,.77,0,2.08,2.08,0,0,1,1.39.39,2.48,2.48,0,0,1,.66.59,3.61,3.61,0,0,1,.66,1.4,9.71,9.71,0,0,1,.36,3,13.8,13.8,0,0,1-.24,1.92,2.08,2.08,0,0,1-2.11,1.78,8.85,8.85,0,0,0-.88.12,2.36,2.36,0,0,0-.36.11l.14.26c.17.26.34.52.5.79a7.71,7.71,0,0,0,1.44,1.82,7.91,7.91,0,0,0,1,1,1.16,1.16,0,0,1,.49,1.35.93.93,0,0,0,0,.29.51.51,0,0,1-.53.58h-1.86a.29.29,0,0,1-.29-.22c-.19-.42-.38-.85-.56-1.28s-.3-.8-.49-1.18c-.45-.92-.92-1.83-1.39-2.74a2.12,2.12,0,0,0-.11-.21.82.82,0,0,0-.85-.52c-.76,0-1.52-.08-2.28-.13h-.25c0,.13,0,.26,0,.38,0,1.13,0,2.25,0,3.38,0,.43,0,.85.06,1.28A9.22,9.22,0,0,1,211.21,64.26Zm4.15-8.66h0c.26,0,.52,0,.77,0a1,1,0,0,0,.94-.65,7.55,7.55,0,0,0,.26-.93,3.79,3.79,0,0,0-.38-2.56,1,1,0,0,0-.25-.28,2.57,2.57,0,0,0-1.59-.52,5,5,0,0,0-1-.09,7,7,0,0,0-1.12.07.82.82,0,0,1-.27,0l-1.26-.15c-.31,0-.39,0-.39.32,0,.56,0,1.12,0,1.67a14.11,14.11,0,0,1-.06,2.52c0,.33,0,.4.28.48a4.64,4.64,0,0,0,1.11.15C213.44,55.64,214.4,55.61,215.36,55.6Z"/><path class="cls-1" d="M122.46,59.35c.05-.38.11-.71.13-1,0-1.1.06-2.2.12-3.3,0-.45.11-.9.15-1.35s.07-.82.09-1.24a4.81,4.81,0,0,0,0-.93,3.82,3.82,0,0,1,0-1.12,7.8,7.8,0,0,0,0-1.08,1,1,0,0,1,.77-.15,9.25,9.25,0,0,0,.92.12c.28,0,.31.08.31.37,0,.62,0,1.23,0,1.85,0,.36-.05.72-.06,1.08,0,.81,0,1.63,0,2.45,0,.19-.07.38-.07.57,0,.69,0,1.37,0,2.05,0,.44,0,.87,0,1.31,0,.08,0,.15,0,.23a8.07,8.07,0,0,1,0,1.63,4.44,4.44,0,0,1-.08.61,1.12,1.12,0,0,0,0,.57,3.55,3.55,0,0,1,0,.8l0,.72c0,.12.06.25-.1.34s0,.16-.06.25c0,.25-.14.31-.4.3s-.65,0-1,0-.44-.08-.61,0c-.45.18-.61-.1-.78-.4l-1-1.72c-.27-.48-.57-.95-.83-1.44s-.53-1-.79-1.56-.49-1.06-.76-1.57a4.63,4.63,0,0,0-.62-1.16.15.15,0,0,1,0-.14.91.91,0,0,0-.14-.59c-.14-.3-.26-.59-.4-.91a1.16,1.16,0,0,0-.16.65c-.06.86-.1,1.73-.14,2.6,0,.35,0,.71,0,1.07a1.74,1.74,0,0,0,0,.22c0,.2,0,.41,0,.61s0,.47,0,.7c0,.61-.08,1.22-.06,1.83a4.67,4.67,0,0,1-.13,1.24,1,1,0,0,0,0,.42c0,.18,0,.29-.23.28s-.59,0-.88-.05l-.23,0c-.44,0-.45,0-.46-.48,0-1.58,0-3.16,0-4.74,0-.59.07-1.19,0-1.78-.06-1.08,0-2.15,0-3.22,0-.7.08-1.39.11-2.09,0-.25,0-.5,0-.74,0-.6.07-1.19.12-1.79a.5.5,0,0,1,.55-.48,5.23,5.23,0,0,1,1.31,0,2.34,2.34,0,0,0,.46,0c.07.2.14.42.22.64.26.81.53,1.62.79,2.44a2.22,2.22,0,0,1,.09.37,4.55,4.55,0,0,0,.59,1.31,3.85,3.85,0,0,1,.47,1.08,1.68,1.68,0,0,0,.26.56,1.15,1.15,0,0,1,.31.75.42.42,0,0,0,.06.14L122,59A.87.87,0,0,0,122.46,59.35Z"/><path class="cls-1" d="M241,58.55a20.67,20.67,0,0,0-4.72-.06c0,.14,0,.27,0,.39,0,.68-.08,1.35-.08,2s0,1.25.07,1.87c0,.06,0,.13,0,.19-.05.44-.13.62-.66.57s-1.08-.08-1.61-.1c-.36,0-.57-.17-.57-.52s.06-.93.06-1.4c0-1.27,0-2.54,0-3.81s.08-2.33.1-3.5,0-2.13,0-3.19c0-.39,0-.78,0-1.17,0-.12,0-.25,0-.42a10.15,10.15,0,0,1,2.69.21c0,.27-.05.49-.07.72a2.84,2.84,0,0,0,.06,1.16,1,1,0,0,1,0,.3c0,1.39,0,2.78.09,4.16,0,0,0,.05,0,.1a1.4,1.4,0,0,0,.24.06l1.74,0c.35,0,.7,0,1,0l1.44,0c.18,0,.28-.07.29-.27,0-1,.09-2,.11-3.08s0-1.81,0-2.72a4.86,4.86,0,0,1,.06-.6,4.91,4.91,0,0,1,.83-.06,3.62,3.62,0,0,1,1.42.16c.14.06.24.14.22.27a13.94,13.94,0,0,0,.12,2c0,.22,0,.42-.22.47a1.94,1.94,0,0,1,.12.49c0,.29,0,.59,0,.89,0,.77,0,1.55,0,2.33s0,1.65-.05,2.48c0,.62,0,1.24,0,1.86,0,.85-.07,1.71-.13,2.55,0,.19.07.41-.17.55-.57,0-1.18-.05-1.78-.1-.41,0-.48-.11-.47-.51,0-.78,0-1.55.05-2.33,0-.51,0-1,0-1.52A2.15,2.15,0,0,0,241,58.55Z"/><path class="cls-1" d="M202.65,49.58a6.57,6.57,0,0,1,1.11-.09,5.67,5.67,0,0,1,1.06.26c0,1.46,0,2.85,0,4.25s-.09,2.7-.11,4c0,.77,0,1.53,0,2.3a4.11,4.11,0,0,1-.14,1.41,2.64,2.64,0,0,1-1.7,1.74,9.79,9.79,0,0,1-2.09.18c-.61,0-1.22,0-1.83,0s-1-.11-1.47-.12a5.7,5.7,0,0,1-1.83-.44,2,2,0,0,1-1.31-1.81,29,29,0,0,1-.05-4.47c.06-1.06,0-2.13.05-3.19s0-2.2,0-3.3a.89.89,0,0,1,.32-.83c.07,0,.09-.16.13-.24l2.17.2a26.79,26.79,0,0,1-.12,4.12c-.06.68,0,1.37,0,2.06s-.06,1.35-.11,2a14.33,14.33,0,0,0,.05,2.45.8.8,0,0,0,.12.27s.09.06.12.1a1,1,0,0,0,1,.5l3.08,0a.38.38,0,0,1,.15,0c.42.1.62-.24.9-.43.07,0,.09-.18.1-.28,0-.37.05-.75.08-1.12s0-1,0-1.42c.06-1,.06-2,.11-3,0-.43,0-.86,0-1.29V51c0-.18,0-.37,0-.55A1.09,1.09,0,0,1,202.65,49.58Z"/><path class="cls-1" d="M110.11,49.9a3.44,3.44,0,0,1,2.17.17c0,1.46,0,2.86,0,4.26s-.09,2.69-.11,4c0,.76,0,1.53,0,2.29a4.14,4.14,0,0,1-.14,1.42,2.6,2.6,0,0,1-1.7,1.73,9.18,9.18,0,0,1-2.09.18,16,16,0,0,1-1.83,0c-.49,0-1-.12-1.46-.12a6,6,0,0,1-1.84-.45,2,2,0,0,1-1.31-1.8,27.8,27.8,0,0,1,0-4.47c0-1.07,0-2.13,0-3.19s0-2.21,0-3.31a.91.91,0,0,1,.32-.83c.07,0,.09-.15.13-.24l2.17.21a26.66,26.66,0,0,1-.12,4.11c-.06.69,0,1.38,0,2.07s-.06,1.34-.11,2a14.21,14.21,0,0,0,0,2.44.57.57,0,0,0,.13.27s.08.07.11.11a1,1,0,0,0,1,.49l3.07,0a.76.76,0,0,1,.15,0c.42.11.62-.24.9-.42.07,0,.09-.19.1-.28,0-.38.06-.75.08-1.13s0-.94,0-1.41c.06-1,.06-2,.11-3,0-.43,0-.85,0-1.28V51.35c0-.18,0-.36,0-.54A1.11,1.11,0,0,1,110.11,49.9Z"/><path class="cls-1" d="M186.2,57.81a2,2,0,0,0-.12.8,7.37,7.37,0,0,1,0,1.15,1.75,1.75,0,0,0,.06.56,3,3,0,0,1,.1,1.19,9.59,9.59,0,0,0-.11,2c0,.31,0,.38-.34.37s-.75,0-1.12-.06a5.21,5.21,0,0,1-.69,0c-.26-.05-.36-.22-.36-.49,0-1.07,0-2.14,0-3.22,0-.88.1-1.76.13-2.64,0-.66,0-1.32,0-2,0-1,0-2,0-3.08,0-.8,0-1.6,0-2.41a2.78,2.78,0,0,0-.08-.49c-.08-.26,0-.41.24-.43a2.74,2.74,0,0,1,.7,0,3.3,3.3,0,0,0,1.34-.11,2,2,0,0,1,.07.41c0,1.27.06,2.54.07,3.81,0,.54,0,1.09-.05,1.63v.59l.38,0a4.93,4.93,0,0,1,.54,0q1.2,0,2.4.09c.45,0,.57-.06.55-.51,0-.91-.07-1.82-.09-2.73a12.16,12.16,0,0,1,0-1.35,9.46,9.46,0,0,1,0-1.19c.09-.48.19-.6.67-.57l1.27.08.26,0c.17.14.12.33.13.51,0,1.64,0,3.29.08,4.94,0,.54.09,1.08.14,1.62a1.62,1.62,0,0,1,0,.31.87.87,0,0,0,0,.67,1,1,0,0,1,0,.42l-.09,2.48a1.34,1.34,0,0,0,0,.2,2.37,2.37,0,0,1,0,.84,2.43,2.43,0,0,0,0,.53c0,.52-.07,1-.06,1.55a.67.67,0,0,1-.69.67,6.63,6.63,0,0,0-1,.08c-.49.07-.78-.14-.74-.62.09-1.21,0-2.41,0-3.62,0-.58-.07-1.16-.12-1.74,0-.28-.06-.3-.34-.29-.65,0-1.3.07-1.94.08a4.12,4.12,0,0,1-.7-.05A1,1,0,0,0,186.2,57.81Z"/><path class="cls-1" d="M154,63.43v-.89c0-.57,0-1.14-.05-1.71a7.05,7.05,0,0,0,0-1.3,2.52,2.52,0,0,1,0-.62c0-.41,0-.82,0-1.24s0-1,0-1.45c0-.29-.05-.59-.06-.88a7.6,7.6,0,0,1,0-1.35,1.79,1.79,0,0,0,0-.61,9.08,9.08,0,0,1,0-1.73c0-.75,0-1.5,0-2.25a1.38,1.38,0,0,1,0-.41.37.37,0,0,1,.29-.19c.72,0,1.44-.1,2.16-.11a11.37,11.37,0,0,1,1.31.09,4.38,4.38,0,0,0,.5,0,3,3,0,0,1,1.46.21,10.05,10.05,0,0,1,1.46.66,3.31,3.31,0,0,1,1.24,1.5c.15.36.27.73.43,1.08a5.92,5.92,0,0,1,.45,2.07,21.47,21.47,0,0,1,0,2.78c0,.66,0,1.32-.05,2a5.5,5.5,0,0,1-.43,1.83,1.07,1.07,0,0,0-.11.33,2.47,2.47,0,0,1-.44,1,1.94,1.94,0,0,1-.93.75,7.47,7.47,0,0,1-1,.34,6,6,0,0,1-2.52.24c-.87,0-1.75,0-2.63,0A3.55,3.55,0,0,1,154,63.43Zm2.2-1.9a1.18,1.18,0,0,0,.26,0l1.92-.18a3,3,0,0,0,1.52-.37,1.1,1.1,0,0,0,.46-.39,4.52,4.52,0,0,0,.33-.66,14.47,14.47,0,0,0,.4-1.73,11.13,11.13,0,0,0,.18-2.23c0-.58-.08-1.16-.11-1.74a6.23,6.23,0,0,0-.68-2.14.49.49,0,0,0-.13-.18l-.59-.44a1.42,1.42,0,0,0-.72-.28,6.56,6.56,0,0,1-1-.14,7.24,7.24,0,0,0-2.08.06c0,.1,0,.17,0,.23,0,.91,0,1.82,0,2.72s0,2,.07,3c0,.47.08.93.1,1.39s0,.73,0,1.09A8.42,8.42,0,0,1,156.19,61.53Z"/><path class="cls-1" d="M144.05,49.21h1.06c.46,0,.91,0,1.36,0,.85,0,1.7-.11,2.55-.14.56,0,1.12,0,1.67,0a6.86,6.86,0,0,1,1.11,0c.5.09.61.19.57.7s-.05.82-.06,1.23a1.18,1.18,0,0,0,0,.26c-.12.17-.3.13-.46.14l-4.63.07c-.29,0-.59,0-.87,0v.88c0,.88,0,1.75,0,2.65l.29,0a32.42,32.42,0,0,0,3.27,0,3.09,3.09,0,0,0,1.41-.12c.13-.07.3.1.32.31s0,.47,0,.7a2.76,2.76,0,0,0,.11,1.27.68.68,0,0,1-.61.13,13.46,13.46,0,0,0-2.29.1c-.61,0-1.22,0-1.83,0h-.52a3,3,0,0,0,0,.3,29.16,29.16,0,0,1,.07,3.1c0,.18,0,.35,0,.58a2.83,2.83,0,0,1,1.4-.11,4,4,0,0,0,.91-.08,3.8,3.8,0,0,1,1.54,0,8.93,8.93,0,0,0,1,.08c.21,0,.41,0,.62,0a.25.25,0,0,1,.28.29v0c0,.54,0,1.09-.08,1.63s-.32.61-.7.56a3.75,3.75,0,0,0-.82,0c-.63,0-1.27,0-1.9,0-.41,0-.83,0-1.24-.07l-1.75-.07c-.27,0-.54,0-.81-.06s-.41,0-.61,0c-.4,0-.49-.14-.49-.53v-5.8c0-.28-.07-.56-.07-.85,0-1.46,0-2.93,0-4.39,0-.45-.08-.9-.12-1.35a.48.48,0,0,1,0-.12c0-.25.06-.51.06-.76S143.83,49.49,144.05,49.21Z"/><path class="cls-1" d="M180.46,53a4.63,4.63,0,0,1-1.77.09.3.3,0,0,1-.32-.23c-.06-.16-.11-.32-.16-.48A1.63,1.63,0,0,0,177,51.17a2.13,2.13,0,0,0-2.52.81,2.91,2.91,0,0,0-.41.91,4.31,4.31,0,0,0-.21,1.71c0,.29-.1.59-.1.89,0,.69.07,1.39.05,2.09,0,.5.07,1,.1,1.48s.1.87.15,1.31a3,3,0,0,0,.85,1.49.53.53,0,0,0,.26.15,3.55,3.55,0,0,0,1.87.26,1.31,1.31,0,0,0,1.07-.68,2.61,2.61,0,0,0,.44-1.15.45.45,0,0,1,.47-.36c.24,0,.47,0,.7,0a4.9,4.9,0,0,0,.54,0c.36,0,.38,0,.4.34a5.23,5.23,0,0,1-.31,1.79,2.77,2.77,0,0,0-.12.41,1.1,1.1,0,0,1-.53.81,3,3,0,0,1-1.44.62,5.4,5.4,0,0,1-1.27.17l-1.46-.12c-.21,0-.41-.07-.62-.09a3.33,3.33,0,0,1-1.79-.77,5.8,5.8,0,0,1-1-1,4.5,4.5,0,0,1-.29-.78,4.76,4.76,0,0,1-.37-1.74c0-.46-.09-.93-.13-1.39a1.22,1.22,0,0,1,0-.27c0-.46.05-.91.08-1.36a35.71,35.71,0,0,1,.28-4.26,4.35,4.35,0,0,1,.77-1.76,5.91,5.91,0,0,1,1.66-1.57,3.59,3.59,0,0,1,2.6-.49,5.88,5.88,0,0,1,1.73.58,2.89,2.89,0,0,1,1.27,1.27c.19.37.34.75.54,1.11A2.53,2.53,0,0,1,180.46,53Z"/><path class="cls-1" d="M231.26,52.85a4.44,4.44,0,0,1-1.77.09.31.31,0,0,1-.32-.22c0-.16-.11-.32-.16-.49A1.64,1.64,0,0,0,227.82,51a2.16,2.16,0,0,0-2.52.81,3,3,0,0,0-.41.91,4.5,4.5,0,0,0-.21,1.71c0,.3-.09.6-.09.89,0,.7.06,1.4,0,2.09,0,.5.07,1,.1,1.49s.1.87.15,1.3a2.94,2.94,0,0,0,.85,1.5.7.7,0,0,0,.27.15,3.49,3.49,0,0,0,1.86.25,1.27,1.27,0,0,0,1.07-.68,2.35,2.35,0,0,0,.44-1.14c0-.2.25-.37.48-.37l.69,0c.18,0,.36,0,.54,0,.37,0,.38,0,.41.33a5.48,5.48,0,0,1-.31,1.79,2.12,2.12,0,0,0-.12.41,1.14,1.14,0,0,1-.53.81,2.9,2.9,0,0,1-1.45.62,5.4,5.4,0,0,1-1.27.17L226.35,64c-.21,0-.41-.06-.62-.08a3.27,3.27,0,0,1-1.79-.78,5.35,5.35,0,0,1-.95-1,8.56,8.56,0,0,1-.67-2.53c0-.46-.09-.92-.13-1.39a1.22,1.22,0,0,1,0-.27c0-.45.06-.9.08-1.35a36,36,0,0,1,.29-4.27,4.18,4.18,0,0,1,.77-1.75A5.49,5.49,0,0,1,225,49a3.6,3.6,0,0,1,2.61-.49,5.9,5.9,0,0,1,1.72.57,3,3,0,0,1,1.27,1.27c.19.37.34.75.54,1.12A2.41,2.41,0,0,1,231.26,52.85Z"/><path class="cls-1" d="M137.89,63.61h-2.08a.43.43,0,0,1-.41-.41c0-.37-.11-.78.2-1.11a.24.24,0,0,0,0-.22.93.93,0,0,1-.16-.74c0-2.11.08-4.22.12-6.34,0-.84,0-1.68,0-2.53a3.62,3.62,0,0,0,0-.43l-3.86-.19a2.16,2.16,0,0,1-.06-.38c0-.48,0-1,0-1.43s.1-.51.55-.52.75,0,1.13,0c1,0,2.05,0,3.07,0s2.31.1,3.46.14c.43,0,.86,0,1.28,0H142a.93.93,0,0,1,0,.14c0,.11,0,.22,0,.33.05.32.09.64.17.95s-.07.51-.1.76-.19.23-.36.23h-2l-1.21,0c-.4,0-.51.12-.51.52,0,.57,0,1.14,0,1.71,0,1,0,2.1,0,3.15,0,1.28,0,2.56,0,3.85,0,.45,0,.9,0,1.36s0,.64-.06.95A.6.6,0,0,1,137.89,63.61Z"/><path class="cls-1" d="M130.3,63.63c-.2,0-.39.12-.52-.1-.25.22-.48.23-.66,0s-.24-.15-.31,0-.23.19-.38.16-.18-.17-.18-.3c0-.74,0-1.48,0-2.22,0-1.34-.09-2.67-.13-4,0-.57,0-1.14,0-1.71V54.42l1.79.08a.29.29,0,0,1,.18.12,1.65,1.65,0,0,1,.14.48c0,.71.08,1.42.11,2.13,0,.38,0,.77,0,1.16,0,1.12.07,2.25.12,3.38,0,.4.09.79.08,1.19A2.51,2.51,0,0,1,130.3,63.63Z"/><path class="cls-1" d="M127.82,48.87l.43,0,.81,0c.19,0,.37.08.58,0s.38.15.39.34a6.68,6.68,0,0,1,0,1c0,.29-.09.41-.43.44s-.51.1-.76.1a4.6,4.6,0,0,1-.91-.09c-.27,0-.34-.17-.3-.45S127.75,49.33,127.82,48.87Z"/><path class="cls-1" d="M166.07,36.3a12.47,12.47,0,0,0,2,2.79c.32.28.59.61.88.92a.58.58,0,0,0,.12.1c.41.2.44.56.42,1a4.2,4.2,0,0,0-.06.62c0,.3-.18.48-.49.48h-1.8a.27.27,0,0,1-.28-.19c-.17-.42-.36-.83-.53-1.24s-.29-.8-.48-1.18c-.42-.88-.86-1.75-1.3-2.62a1.3,1.3,0,0,1-.08-.17.84.84,0,0,0-.84-.54c-.69,0-1.39-.08-2.09-.13h-.37c0,.42,0,.82,0,1.21,0,.58,0,1.15,0,1.73,0,.29,0,.57,0,.86a4.7,4.7,0,0,0,0,.75,6.26,6.26,0,0,1-.08,1.56s0,.06,0,.06a10.27,10.27,0,0,1-2.47-.08c0-.27,0-.52,0-.76,0-1,.11-2,.11-3.08,0-1.53,0-3.07,0-4.61l0-2.48c0-.61,0-1.22,0-1.83s0-1,0-1.53a1.23,1.23,0,0,1,.18-.75c.15-.23.31-.33.54-.23a1.12,1.12,0,0,0,.51,0l1.31,0,1.87.09,2.62.15,1.28.08a2.26,2.26,0,0,1,1.8,1,4.88,4.88,0,0,1,.69,1.85,9.42,9.42,0,0,1,0,4.06,2.57,2.57,0,0,1-.61,1.26,1.83,1.83,0,0,1-1.12.56c-.38,0-.75.07-1.12.12C166.39,36.21,166.26,36.25,166.07,36.3Zm-2.23-2.38h0l2,0a1.4,1.4,0,0,0,.4-.07,1.23,1.23,0,0,0,.8-1,4.26,4.26,0,0,0,.05-2.07,1.75,1.75,0,0,0-1.14-1.41,4.25,4.25,0,0,0-.62-.12,9.12,9.12,0,0,0-.91-.17c-.31,0-.62,0-.93,0a1.13,1.13,0,0,0-.18,0,2.28,2.28,0,0,1-.44.05q-.66-.06-1.29-.15c-.33,0-.42,0-.42.34,0,.55,0,1.1,0,1.65a13.18,13.18,0,0,1-.1,2.43c0,.18,0,.3.17.35a2.29,2.29,0,0,0,.61.16C162.52,33.92,163.18,33.92,163.84,33.92Z"/><path class="cls-1" d="M227,37.18,227,32c0-1.25,0-2.5-.07-3.75a3.21,3.21,0,0,1,0-.82c0-.14.1-.21.22-.22a4.1,4.1,0,0,1,.7,0c.36,0,.72.11,1.07.15.14,0,.24.11.2.22a3,3,0,0,0,0,1.19c0,1.17,0,2.35,0,3.53,0,1.73,0,3.48.09,5.21.07,1.29-.07,2.58,0,3.87a2.62,2.62,0,0,1-.09.56l-1.49,0a.51.51,0,0,1-.39-.26c-.44-.59-.89-1.17-1.32-1.77a11.62,11.62,0,0,0-1.77-1.94l-.72-.66c-.2-.18-.28-.17-.46,0l-.11.15c-.5.76-1,1.52-1.49,2.3-.31.52-.55,1.09-.81,1.64-.07.14-.14.23-.3.23l-.85,0-.6,0c-.37,0-.43-.06-.43-.43s0-.68,0-1a14.84,14.84,0,0,0-.07-2.21c0-.53,0-1.07,0-1.61,0-1.16,0-2.32.06-3.49a13.47,13.47,0,0,0,0-1.42c-.09-.76,0-1.52-.07-2.28a8.31,8.31,0,0,0-.07-.86v0a1.36,1.36,0,0,1,.21-1.24c.33,0,.66,0,1,0s.65.17,1,0c0,.37.09.72.1,1.08,0,1.7,0,3.4.06,5.1,0,1.13.07,2.25.11,3.38a2.12,2.12,0,0,0,.06.21c.1-.15.18-.24.23-.34l.3-.65.11-.19c.15-.18.33-.34.46-.53.34-.5.67-1,1-1.5.2-.3.35-.35.64-.11a12.42,12.42,0,0,1,1.07,1c.37.39.7.81,1,1.22.09.1.2.19.29.3s.13.2.2.29l.8,1.08Z"/><path class="cls-1" d="M138.09,27.86l.22.74c.24.75.52,1.49.72,2.25a6.3,6.3,0,0,0,.56,1.46c.09.16.2.32.28.49s.14.44.22.65a4.27,4.27,0,0,0,.29.61c.12.22.3.41.27.69a.3.3,0,0,0,.08.17c.49.83,1,1.65,1.48,2.46a2.88,2.88,0,0,0,.43.43,1.42,1.42,0,0,0,.13-.41c.06-.67.1-1.34.15-2a23.88,23.88,0,0,1,.24-3.16,5.27,5.27,0,0,0,.07-.79,7.61,7.61,0,0,0,0-1.35,2.9,2.9,0,0,1,0-.93,2.33,2.33,0,0,0,0-.53c0-.19,0-.39,0-.63a2.44,2.44,0,0,1,.57-.08,10,10,0,0,1,1.08.14c.26,0,.27.07.27.33,0,.61,0,1.22,0,1.83s0,1-.05,1.56,0,1.2,0,1.8c0,.2-.07.4-.07.59,0,.66,0,1.32-.05,2s-.06,1,0,1.56a10.17,10.17,0,0,1,0,1.46,4.12,4.12,0,0,1-.07.59.61.61,0,0,0,0,.54.46.46,0,0,1,0,.26,4.66,4.66,0,0,0,0,1.18c0,.13.1.3-.11.38,0,0,0,.16,0,.25a.3.3,0,0,1-.37.28l-.74,0H143a.55.55,0,0,0-.26,0c-.21.13-.33,0-.43-.14a9.71,9.71,0,0,1-.78-1.28c-.24-.56-.59-1.07-.88-1.61s-.67-1.28-1-1.93-.51-1.11-.78-1.66a3.81,3.81,0,0,0-.55-1,.22.22,0,0,1,0-.14.78.78,0,0,0-.12-.54,8,8,0,0,0-.43-.89c0,.22-.1.44-.12.66,0,.76-.1,1.52-.14,2.29,0,.39,0,.79,0,1.18a2.07,2.07,0,0,1,0,.22c0,.2,0,.41,0,.62s0,.45,0,.67c0,.6-.09,1.21-.06,1.8a4.66,4.66,0,0,1-.14,1.13,1.34,1.34,0,0,0,0,.4c0,.17,0,.29-.2.28s-.55,0-.82,0-.24-.06-.37-.07c-.31,0-.32,0-.33-.36,0-.67,0-1.33,0-2s0-1.55,0-2.33.09-1.37.06-2.06c0-1.06,0-2.11.09-3.17,0-.65.08-1.3.12-1.95,0-.16,0-.32,0-.49,0-.63.07-1.27.13-1.9a.5.5,0,0,1,.59-.52,4.24,4.24,0,0,1,1.23.05A2.07,2.07,0,0,0,138.09,27.86Z"/><path class="cls-1" d="M187.2,35.9c-.45.28-.56.77-.85,1.13s-.33.47-.49.7a.57.57,0,0,0-.11.16c-.24.69-.78,1.22-1.05,1.9-.19.5-.41,1-.61,1.48a2.62,2.62,0,0,0-.15.39c-.05.31-.3.36-.52.36a8,8,0,0,1-1.09-.1c-.32,0-.37-.1-.39-.43,0-.66,0-1.32-.05-2,0-.51-.06-1-.09-1.53a1.06,1.06,0,0,1,0-.25s.05-.1,0-.14a9.09,9.09,0,0,1-.08-2.15c0-1.16,0-2.32-.06-3.49,0-.52-.09-1-.11-1.56s0-1,0-1.47c0-.3,0-.6,0-.9a1.6,1.6,0,0,1,0-.27,4.44,4.44,0,0,1,.49-.07c.42,0,.84,0,1.25,0a.31.31,0,0,1,.34.28c0,.11,0,.22,0,.33,0,.45,0,.9.05,1.35s0,1.14,0,1.72v3.19c0,.16,0,.32,0,.48,0,.34,0,.68,0,1,0,.16,0,.33,0,.49a2.28,2.28,0,0,0,.06.62l.15-.22c.44-.68.87-1.37,1.34-2,.23-.34.43-.69.66-1a9,9,0,0,1,.85-.9c.11,0,.21.11.29.09s.23.08.32.18a7.78,7.78,0,0,1,.47.7l1.8,2.35c.22.3.41.63.61.94l.14.17a3.39,3.39,0,0,0,0-1.19c-.05-.87-.05-1.74,0-2.62,0-.38,0-.77,0-1.15s0-1,0-1.46,0-1.1,0-1.65,0-.85,0-1.28.11-.5.53-.57a1.85,1.85,0,0,1,.77-.11c.06,0,.13,0,.19,0,.44.15.63.08.57.75s0,1.33,0,2v.67c0,.83,0,1.65,0,2.47s-.06,1.5-.05,2.24c0,1,.05,2,.08,3a.33.33,0,0,1,0,.14,5.91,5.91,0,0,0-.05,1.33,8.68,8.68,0,0,1-.1,1c0,.19,0,.39-.06.62l-.84,0a4.51,4.51,0,0,1-.52,0,.42.42,0,0,1-.28-.11c-.36-.5-.7-1-1-1.51-.14-.22-.27-.45-.4-.68L188,37.07c-.18-.31-.37-.61-.57-.92A2.43,2.43,0,0,0,187.2,35.9Z"/><path class="cls-1" d="M147.29,27.25a6.57,6.57,0,0,1,1-.05,22.08,22.08,0,0,0,3.15,0,3.72,3.72,0,0,1,1.15.12,15.39,15.39,0,0,1,1.87.55,2.86,2.86,0,0,1,1.5,1.35,6.12,6.12,0,0,1,.75,2.72c0,.86.12,1.72.16,2.58a8,8,0,0,1-.06,1.2c-.06.83-.2,1.66-.19,2.5a5.37,5.37,0,0,1-.42,1.87.93.93,0,0,1-.34.44,8.22,8.22,0,0,1-1,.7,5.27,5.27,0,0,1-2.39.58c-1.25.06-2.5.07-3.75.09q-.32,0-.63,0c-.36,0-.44-.1-.47-.46-.05-.69-.09-1.37-.1-2.06,0-1.89,0-3.78,0-5.67,0-.82,0-1.65-.1-2.47-.07-1-.1-2-.08-2.94C147.26,27.91,147.28,27.6,147.29,27.25Zm2.25,1.91c0,.72.07,1.38.08,2a8.12,8.12,0,0,0-.07.85c.11.82,0,1.64.16,2.46.12.61,0,1.25.09,1.88.11,1,.13,2.06.19,3.1,0,.35.06.37.4.46a4.57,4.57,0,0,0,1.56.1c.31,0,.62-.11.92-.15s.46-.41.81-.4c.06,0,.15-.13.19-.21a4.52,4.52,0,0,0,.33-.91,24,24,0,0,0,.34-2.53,20.6,20.6,0,0,0-.2-4,2.71,2.71,0,0,0-.33-1,2.15,2.15,0,0,0-1.41-1.25.44.44,0,0,1-.15-.1,1.89,1.89,0,0,0-.3-.19,5.79,5.79,0,0,0-2.15-.23C149.83,29.06,149.64,29,149.54,29.16Zm-1.83,5.54-.06,0,0,.18.09,0Z"/><path class="cls-1" d="M204.68,28c-.44.66-.87,1.29-1.29,1.93a.29.29,0,0,1-.36.12,3,3,0,0,1-.41-.19,5.59,5.59,0,0,0-2.32-.8c-.32,0-.63-.16-1-.18a2.18,2.18,0,0,0-2,.91,2.74,2.74,0,0,0-.56,1.56,1.25,1.25,0,0,0,.58,1.14,3.16,3.16,0,0,0,1.51.59c.95.13,1.9.33,2.84.51a7,7,0,0,0,.78.13,2.18,2.18,0,0,1,1.17.51,2.35,2.35,0,0,1,.77,1.18,5.68,5.68,0,0,1,.25,1.74,9.1,9.1,0,0,1,0,1.38,6,6,0,0,1-.47,1.49.7.7,0,0,1-.17.25c-.43.41-.87.83-1.32,1.21a1.79,1.79,0,0,1-1,.42,4.54,4.54,0,0,0-1,.14,5.83,5.83,0,0,1-2,.13,5.69,5.69,0,0,1-1.67-.42c-.31-.13-.62-.25-.94-.36a8.36,8.36,0,0,1-1.79-1.08,1.64,1.64,0,0,1-.3-.29.3.3,0,0,1,0-.41c.4-.47.82-.94,1.21-1.38l1.45.79c.14.07.28.12.42.18l1.19.44c.35.11.72.22,1.08.3a2,2,0,0,0,1.35-.15,5.92,5.92,0,0,0,.87-.44,2.22,2.22,0,0,0,.94-1.86c0-.2,0-.4-.05-.6a1.26,1.26,0,0,0-1-1.19c-.29-.09-.58-.14-.87-.2-1-.19-2.07-.39-3.1-.54a3.9,3.9,0,0,1-1.64-.78,1.18,1.18,0,0,0-.19-.11,1.7,1.7,0,0,1-.74-.87,5.47,5.47,0,0,1-.08-4A3.81,3.81,0,0,1,197,27a5,5,0,0,1,3-.31c.76.15,1.53.27,2.28.45a7.81,7.81,0,0,1,2.24.81Z"/><path class="cls-1" d="M266.47,30.11a1.91,1.91,0,0,1-.49.12c-.46,0-.92-.07-1.39-.08s-1.21,0-1.85,0a37.58,37.58,0,0,0,.07,4.24l1.8.07,1.61.06c.52,0,1,0,1.54,0h.53c.2,0,.31.12.29.31-.07.61-.16,1.23-.24,1.88-.45,0-.86.09-1.29,0a13,13,0,0,0-2.92-.1c-.46,0-.92,0-1.44.07l-.1,2.4H264l.23,0,2.21,0c.49,0,1,.06,1.48.1l.9.07a3,3,0,0,1,.35.09c0,.57-.08,1.1-.14,1.63,0,.31-.11.36-.41.37-.83,0-1.67,0-2.5-.06a1.73,1.73,0,0,0-.45,0,8.24,8.24,0,0,1-1.72,0c-.38,0-.75,0-1.13,0a2.7,2.7,0,0,0-.39.08,1.14,1.14,0,0,1-.36,0,6.25,6.25,0,0,0-1.49-.12c-.37,0-.62-.17-.58-.56a11.11,11.11,0,0,0,.08-1.15c0-1.08,0-2.16,0-3.23,0-1.27.09-2.53.12-3.79,0-.79,0-1.58,0-2.36,0-.63,0-1.25,0-1.88a4.12,4.12,0,0,0,0-.42l.29-.05.45,0c.76,0,1.52-.06,2.28-.06.56,0,1.12.07,1.68.09s1,0,1.5,0l.71,0c.54,0,1.08,0,1.62,0,.19,0,.39,0,.57,0a1.85,1.85,0,0,1,.1,1.06,4.09,4.09,0,0,1-.16,1c-.06.13-.14.21-.27.19a16.32,16.32,0,0,0-2,.12h-.12C266.69,30.37,266.52,30.3,266.47,30.11Z"/><path class="cls-1" d="M233.92,33.05l2.32,0H238a2.3,2.3,0,0,0,.58-.07c.26-.06.39,0,.41.26a5.61,5.61,0,0,1,0,.71,3.18,3.18,0,0,0,.07,1.19c-.09.16-.25.12-.4.12-.45,0-.9,0-1.35,0l-2.28.11a5.15,5.15,0,0,1-.56,0l-.44,0,.06,3.78a4.58,4.58,0,0,1,1.65,0,.92.92,0,0,0,.37,0,2.08,2.08,0,0,1,1.25-.13,10.33,10.33,0,0,0,1.92.13c.32,0,.38,0,.37.35,0,.49-.07,1-.06,1.46s-.24.62-.71.59l-1.12,0a22.65,22.65,0,0,1-3.08-.1c-.43,0-.87,0-1.31,0l-1.26,0a.8.8,0,0,1-.26-.05c-.29-.09-.31-.11-.31-.42,0-1.22,0-2.45.05-3.67,0-.49,0-1,0-1.47,0-1.57-.09-3.14,0-4.72a9.16,9.16,0,0,0,0-1.57c-.06-.5,0-1,0-1.47a.73.73,0,0,1,.25-.63c.43,0,.87.07,1.3.07s1.07-.06,1.6-.09c.11,0,.22,0,.34,0l1.35,0c.62,0,1.25,0,1.87,0,.38,0,.77,0,1.15.07.2,0,.34.1.34.32,0,.4,0,.79,0,1.19,0,.19,0,.38-.05.63s-.32.09-.51.09l-2.74,0-2.32,0h-.18a13.4,13.4,0,0,1,0,2.1C233.9,32.15,233.91,32.59,233.92,33.05Z"/><path class="cls-1" d="M178.83,35.24a8.86,8.86,0,0,1-1.7,0c-.56.06-1.12.07-1.69.09s-1.11,0-1.72,0a36.69,36.69,0,0,1,.08,3.78,5.18,5.18,0,0,1,1.71,0,.51.51,0,0,0,.3,0,3.17,3.17,0,0,1,1.83,0,5.21,5.21,0,0,0,.89,0l.6,0c.17,0,.28.09.27.28v0c0,.52,0,1-.08,1.57s-.23.54-.62.53c-.7,0-1.4,0-2.09,0l-2-.08-1.54-.07c-.4,0-.81,0-1.22,0a3.93,3.93,0,0,1-.6-.14c0-.6,0-1.15,0-1.7,0-1.42.06-2.85.06-4.27,0-1-.05-2.1-.06-3.15,0-.45,0-.9,0-1.35,0-.62-.09-1.24-.1-1.87a7.81,7.81,0,0,1,.09-1.18c0-.12.12-.23.18-.34.44,0,.85.07,1.26.07a8.49,8.49,0,0,0,1.67-.07,1,1,0,0,1,.3,0l1.43,0c.58,0,1.17,0,1.76,0,.35,0,.71,0,1.07,0s.52.18.53.66-.05.81-.07,1.22a.66.66,0,0,0,0,.23c-.12.18-.34.13-.53.14-1,0-1.92,0-2.89,0l-2.21,0h-.14c0,.42,0,.82,0,1.22,0,.18-.06.35-.06.52,0,.55,0,1.1.05,1.67l.27,0h2.4c.48,0,1,0,1.46,0a2.11,2.11,0,0,0,.55-.09c.23-.06.37,0,.39.24a3.11,3.11,0,0,1,0,.68A2.78,2.78,0,0,0,178.83,35.24Z"/><path class="cls-1" d="M126.57,41.82l.44.25-.8.32a.39.39,0,0,1-.15,0,8.69,8.69,0,0,0-1.53,0c-.34,0-.51-.17-.45-.52.1-.61.23-1.22.35-1.83l.39-2c.05-.28.1-.57.14-.85a3,3,0,0,0,.05-1.08,1,1,0,0,1,.16-.68,2.07,2.07,0,0,0,.18-.47c.14-.66.27-1.32.38-2,.16-.92.3-1.84.46-2.77,0-.25.12-.5.18-.76.12-.57.24-1.14.37-1.73.73,0,1.45,0,2.16,0a6.93,6.93,0,0,1,1.44.1c.32,0,.44.16.51.5.22,1.15.46,2.3.67,3.45.17.88.31,1.77.46,2.66s.3,1.8.47,2.7c.08.42.25.84.31,1.26a25.74,25.74,0,0,0,.66,2.62c0,.14-.11.24,0,.37a1.12,1.12,0,0,1,.11.38c0,.14.06.29.1.48-.09,0-.2.09-.26.06-.34-.17-.69,0-1,0-.05,0-.15.06-.15.09,0,.28-.17.23-.34.23h-.34c-.31,0-.36,0-.41-.33-.09-.52-.16-1-.25-1.56s-.21-1.18-.31-1.77l-.3-1.85c-.05-.35-.11-.4-.45-.4l-2.1,0-.45,0c0,.24-.09.47-.12.7s-.08.52-.11.78-.05.59-.08.89a.51.51,0,0,1-.06.25.86.86,0,0,0-.09.65.61.61,0,0,1,0,.33C126.52,40.76,126.73,41.31,126.57,41.82Zm1-7.59.5.18a4.58,4.58,0,0,0,.49.15,5.43,5.43,0,0,1,.61.17.42.42,0,0,0,.61-.41,1.68,1.68,0,0,0-.07-.44,20.59,20.59,0,0,1-.42-2.69A7.36,7.36,0,0,0,129,30c0-.16-.26-.24-.48-.21s-.17.15-.19.28c-.15.86-.29,1.72-.45,2.58C127.74,33.15,127.63,33.69,127.53,34.23Z"/><path class="cls-1" d="M99.88,40.72c.33-.35.6-.66.89-.95a.92.92,0,0,1,.38-.15,2,2,0,0,1,.29-.09.82.82,0,0,1,.17.1,5.07,5.07,0,0,0,.61.52,5.66,5.66,0,0,0,.7.34,2.67,2.67,0,0,0,2.24.14,1.82,1.82,0,0,0,.53-.39.86.86,0,0,0,.23-.55,2.87,2.87,0,0,0-.18-1.27,6.61,6.61,0,0,0-1.6-2c-.17-.13-.36-.23-.54-.35-.5-.34-1-.66-1.51-1A4.77,4.77,0,0,1,100,31.33a3.3,3.3,0,0,1,.68-2.18,3.83,3.83,0,0,1,2.2-1.45,8.2,8.2,0,0,1,1.78-.17,2.5,2.5,0,0,1,1.92.85.83.83,0,0,0,.23.19,1.36,1.36,0,0,1,.72.77,3.81,3.81,0,0,1,.36,1.59c0,.26-.11.34-.36.34s-.39.05-.57,0a8,8,0,0,1-1.1-.12c-.09,0-.21-.15-.24-.25a2,2,0,0,0-.93-1.22,2.3,2.3,0,0,0-.7-.35,1.15,1.15,0,0,0-.58.05,1.48,1.48,0,0,0-1,.74,2.85,2.85,0,0,1-.16.3,1,1,0,0,0-.2.78,1.51,1.51,0,0,0,.07.53,3.61,3.61,0,0,0,1.12,1.57c.76.5,1.53,1,2.27,1.51a9.69,9.69,0,0,1,1.87,1.56c.22.27.39.58.59.87s.11.44.23.65a2,2,0,0,1,.13.73,4.73,4.73,0,0,1,.05.75,2.29,2.29,0,0,1-.11.74c-.18.47-.42.92-.64,1.38-.21,0-.27.26-.41.38s-.33.27-.48.42a2.89,2.89,0,0,1-2,.62,4.13,4.13,0,0,1-1.48-.18c-.41-.14-.81-.32-1.22-.47a6.2,6.2,0,0,1-1.69-1A4,4,0,0,1,99.88,40.72Z"/><path class="cls-1" d="M241.39,39.89c.51-.46.78-1.13,1.6-1.17a.77.77,0,0,1,.13.09,7.31,7.31,0,0,0,.61.52c.22.14.47.22.7.34a2.63,2.63,0,0,0,2.24.13,1.81,1.81,0,0,0,.54-.39.81.81,0,0,0,.22-.55,2.91,2.91,0,0,0-.16-1.24,6.7,6.7,0,0,0-1.62-2c-.17-.13-.36-.22-.54-.34-.5-.34-1-.67-1.51-1a4.82,4.82,0,0,1-2.09-3.76,3.35,3.35,0,0,1,.68-2.18,3.88,3.88,0,0,1,2.21-1.44,7.57,7.57,0,0,1,1.78-.17,2.51,2.51,0,0,1,1.92.85.73.73,0,0,0,.22.18,1.4,1.4,0,0,1,.73.78,4,4,0,0,1,.35,1.6c0,.25-.1.32-.37.33s-.38.05-.56,0a10,10,0,0,1-1.1-.12.38.38,0,0,1-.23-.26,2.09,2.09,0,0,0-.94-1.22,1.76,1.76,0,0,0-.7-.34,1.84,1.84,0,0,0-.83.14,1.26,1.26,0,0,0-.71.69,2.2,2.2,0,0,1-.15.26,1,1,0,0,0-.2.74,1.64,1.64,0,0,0,0,.55,3.86,3.86,0,0,0,1.15,1.59c.75.5,1.53,1,2.27,1.51a9.94,9.94,0,0,1,1.86,1.56,8.32,8.32,0,0,1,.59.87c.13.19.12.44.24.65a2.19,2.19,0,0,1,.12.73,4.73,4.73,0,0,1,.05.75,2,2,0,0,1-.11.74c-.18.47-.42.92-.64,1.38-.21,0-.27.26-.41.38a5.82,5.82,0,0,0-.45.4,2.93,2.93,0,0,1-2.07.64,4.13,4.13,0,0,1-1.48-.19c-.41-.14-.81-.31-1.22-.46a6.2,6.2,0,0,1-1.69-1A3.59,3.59,0,0,1,241.39,39.89Z"/><path class="cls-1" d="M270.74,27.18c.35,0,.64,0,.94,0a.24.24,0,0,1,.21.12,15.66,15.66,0,0,0,1.29,1.74c.62.89,1.23,1.77,1.86,2.64a7.29,7.29,0,0,0,.56.63,32.25,32.25,0,0,0,2.95-4.89l2.22-.06a1.21,1.21,0,0,1-.07.34c-.29.59-.6,1.18-.9,1.77a.51.51,0,0,0-.09.16,4.14,4.14,0,0,1-.57,1.29c-.15.27-.28.56-.43.83l-1.6,2.8c-.12.19-.24.38-.34.58a.56.56,0,0,0-.06.29,11.24,11.24,0,0,0,.15,2.65,4.35,4.35,0,0,1,.05.89c0,.8.08,1.61,0,2.42,0,.46-.17.61-.69.66s-.77,0-1.16,0a.6.6,0,0,1-.43-.44c0-.33,0-.65,0-1,0-.67,0-1.35-.06-2s-.12-1.34-.16-2c0-.28,0-.57,0-.85a1.55,1.55,0,0,0-.18-.6c-.33-.61-.66-1.24-1.05-1.82s-.51-1-.81-1.43c-.46-.72-1-1.41-1.48-2.11a.62.62,0,0,1-.16-.47c0-.38,0-.77,0-1.16Z"/><path class="cls-1" d="M117.46,30.36a9.89,9.89,0,0,1-2.77.08,2.5,2.5,0,0,0,0,.59,3.07,3.07,0,0,1-.11,1.13c0,.05-.05.1-.05.14a22.33,22.33,0,0,1,.13,3c0,.39,0,.77.06,1.16s.14.53,0,.8c.09.93,0,1.87,0,2.8,0,.33,0,.65,0,1s0,.85,0,1.26a1.55,1.55,0,0,1-.91.19,6.09,6.09,0,0,0-1,0c-.34,0-.52-.09-.54-.43s0-.55,0-.82c0-.71,0-1.43,0-2.14s.06-1.35.06-2c0-1,0-1.93,0-2.89s0-1.63,0-2.44c0-.33,0-.65,0-1,0-.07,0-.14-.07-.25h-.82l-1.7,0a1.28,1.28,0,0,1-.44-.09.45.45,0,0,1-.24-.21.69.69,0,0,1-.08-.32c0-.53,0-1.07,0-1.65l8.29,0a1.62,1.62,0,0,1,.41,1.3A5.52,5.52,0,0,1,117.46,30.36Z"/><path class="cls-1" d="M258.43,39a1.84,1.84,0,0,1,.05.41c0,.43,0,.87,0,1.3s-.11.55-.61.55-.82,0-1.23,0l-4.17-.05c-.25,0-.5,0-.75,0s-.31-.09-.32-.33q0-1.05,0-2.1c0-.35,0-.7.05-1,0-1.35.09-2.7.12-4.05s.05-2.52.07-3.79c0-.42,0-.85,0-1.27s0-.64.08-1c0-.08.07-.15.08-.18l1.95,0a.41.41,0,0,1,.44.46c0,.35.09.73-.21,1a.22.22,0,0,0,0,.21,1,1,0,0,1,.14.75c0,.61-.07,1.23-.08,1.84,0,1.37-.06,2.75-.09,4.13,0,.82,0,1.65,0,2.47a4.57,4.57,0,0,0,0,.5Z"/><path class="cls-1" d="M213.05,35a11,11,0,0,1-1.71.14c-.33,0-.61.16-.94.08a4.12,4.12,0,0,0-.93-.07c-.32,0-.63,0-.95,0s-.67,0-1-.07-.23-.19-.28-.33a1.42,1.42,0,0,1,0-.36c0-.44,0-.87-.05-1.31a1.62,1.62,0,0,1,0-.22c.05-.41.16-.51.56-.45a12.54,12.54,0,0,0,2.21,0c.41,0,.82,0,1.23,0,.76,0,1.52-.07,2.28-.08a7,7,0,0,1,1.52,0,.29.29,0,0,1,.28.33c0,.51,0,1,0,1.54,0,.13,0,.27,0,.4s0,.3-.28.31l-1.75,0h-.12Z"/><path class="cls-1" d="M119,37.5c.08.28.15.52.21.77a1.1,1.1,0,0,1,0,.26c0,.35.05.7.06,1s0,.51,0,.77c0,.52.07,1,.1,1.58a14,14,0,0,1-2.05,0c0-.18-.08-.34-.11-.51s-.1-.57-.12-.85c0-.51-.06-1-.09-1.52,0-.24,0-.47,0-.71s0-.42,0-.63a.24.24,0,0,1,.24-.25l1.77,0S119,37.5,119,37.5Z"/><path class="cls-1" d="M147.71,34.7l.07.17-.09,0,0-.18Z"/></g></g></svg>