<?xml version="1.0" encoding="UTF-8"?><svg id="Layer_2" xmlns="http://www.w3.org/2000/svg" viewBox="0 0 370.46 370.45"><defs><style>.cls-1{fill:#333;font-family:Poppins-Bold, Poppins;font-size:24px;font-weight:700;}</style></defs><g id="Layer_1-2"><text class="cls-1" transform="translate(20.09 200.67) rotate(-87.62)"><tspan x="0" y="0">W</tspan></text><text class="cls-1" transform="translate(21.32 175.9) rotate(-80.79)"><tspan x="0" y="0">H</tspan></text><text class="cls-1" transform="translate(24.04 158.96) rotate(-75.12)"><tspan x="0" y="0">A</tspan></text><text class="cls-1" transform="translate(28.55 142.23) rotate(-69.99)"><tspan x="0" y="0">T</tspan></text><text class="cls-1" transform="translate(33.44 129.12) rotate(-66.88)"><tspan x="0" y="0"> </tspan></text><text class="cls-1" transform="translate(35.15 124.6) rotate(-63.22)"><tspan x="0" y="0">A</tspan></text><text class="cls-1" transform="translate(42.98 109.15) rotate(-57.87)"><tspan x="0" y="0">R</tspan></text><text class="cls-1" transform="translate(51.17 96.19) rotate(-53.31)"><tspan x="0" y="0">E</tspan></text><text class="cls-1" transform="translate(58.88 86) rotate(-50.43)"><tspan x="0" y="0"> </tspan></text><text class="cls-1" transform="translate(61.85 82.13) rotate(-47.05)"><tspan x="0" y="0">Y</tspan></text><text class="cls-1" transform="translate(72.51 70.56) rotate(-41.49)"><tspan x="0" y="0">O</tspan></text><text class="cls-1" transform="translate(86.38 58.34) rotate(-35.78)"><tspan x="0" y="0">U</tspan></text><text class="cls-1" transform="translate(100.01 48.73) rotate(-32.27)"><tspan x="0" y="0"> </tspan></text><text class="cls-1" transform="translate(104.11 46.05) rotate(-29.62)"><tspan x="0" y="0">L</tspan></text><text class="cls-1" transform="translate(113.69 40.4) rotate(-24.76)"><tspan x="0" y="0">O</tspan></text><text class="cls-1" transform="translate(130.44 32.65) rotate(-18.68)"><tspan x="0" y="0">O</tspan></text><text class="cls-1" transform="translate(147.95 26.77) rotate(-12.94)"><tspan x="0" y="0">K</tspan></text><text class="cls-1" transform="translate(164.02 23.23) rotate(-9.12)"><tspan x="0" y="0">I</tspan></text><text class="cls-1" transform="translate(170.72 21.95) rotate(-5.1)"><tspan x="0" y="0">N</tspan></text><text class="cls-1" transform="translate(188.29 20.32) rotate(.93)"><tspan x="0" y="0">G</tspan></text><text class="cls-1" transform="translate(206.35 20.77) rotate(4.34)"><tspan x="0" y="0"> </tspan></text><text class="cls-1" transform="translate(211.23 21.03) rotate(7.24)"><tspan x="0" y="0">F</tspan></text><text class="cls-1" transform="translate(223.94 22.5) rotate(12.38)"><tspan x="0" y="0">O</tspan></text><text class="cls-1" transform="translate(241.98 26.52) rotate(17.94)"><tspan x="0" y="0">R</tspan></text><text class="cls-1" transform="translate(256.54 31.28) rotate(22.54)"><tspan x="0" y="0">?</tspan></text></g></svg>